<svg xmlns="http://www.w3.org/2000/svg" xmlns:xlink="http://www.w3.org/1999/xlink" viewBox="0 0 25.71 35.23">
  <defs>
    <style>
      .cls-1 {
        fill: none;
      }
      .cls-2 {
        fill: #fff;
      }
      .cls-3 {
        fill: url('#Dots-oragnge_7');
      }
      .cls-4 {
        fill: #92ffa3;
      }
    </style>
    <pattern id="Dots-oragnge_7" data-name="Dots-oragnge 7" width="100" height="100" patternTransform="translate(-6.64 31.65) scale(0.08)" patternUnits="userSpaceOnUse" viewBox="0 0 100 100"><rect class="cls-1" width="100" height="100"/><circle class="cls-2" cx="2.31" cy="97.64" r="1.51"/><circle class="cls-2" cx="6.85" cy="97.64" r="1.51"/><circle class="cls-2" cx="11.4" cy="97.64" r="1.51"/><circle class="cls-2" cx="15.94" cy="97.64" r="1.51"/><circle class="cls-2" cx="20.49" cy="97.64" r="1.51"/><circle class="cls-2" cx="25.03" cy="97.64" r="1.51"/><circle class="cls-2" cx="29.58" cy="97.64" r="1.51"/><circle class="cls-2" cx="34.12" cy="97.64" r="1.51"/><circle class="cls-2" cx="38.67" cy="97.64" r="1.51"/><circle class="cls-2" cx="43.21" cy="97.64" r="1.51"/><circle class="cls-2" cx="47.76" cy="97.64" r="1.51"/><circle class="cls-2" cx="52.3" cy="97.64" r="1.51"/><circle class="cls-2" cx="56.84" cy="97.64" r="1.51"/><circle class="cls-2" cx="61.39" cy="97.64" r="1.51"/><circle class="cls-2" cx="65.93" cy="97.64" r="1.51"/><circle class="cls-2" cx="70.48" cy="97.64" r="1.51"/><circle class="cls-2" cx="75.02" cy="97.64" r="1.51"/><circle class="cls-2" cx="79.57" cy="97.64" r="1.51"/><circle class="cls-2" cx="84.11" cy="97.64" r="1.51"/><circle class="cls-2" cx="88.66" cy="97.64" r="1.51"/><circle class="cls-2" cx="93.2" cy="97.64" r="1.51"/><circle class="cls-2" cx="97.75" cy="97.64" r="1.51"/><circle class="cls-2" cx="2.31" cy="93.08" r="1.51"/><circle class="cls-2" cx="6.85" cy="93.08" r="1.51"/><circle class="cls-2" cx="11.4" cy="93.08" r="1.51"/><circle class="cls-2" cx="15.94" cy="93.08" r="1.51"/><circle class="cls-2" cx="20.49" cy="93.08" r="1.51"/><circle class="cls-2" cx="25.03" cy="93.08" r="1.51"/><circle class="cls-2" cx="29.58" cy="93.08" r="1.51"/><circle class="cls-2" cx="34.12" cy="93.08" r="1.51"/><circle class="cls-2" cx="38.67" cy="93.08" r="1.51"/><circle class="cls-2" cx="43.21" cy="93.08" r="1.51"/><circle class="cls-2" cx="47.76" cy="93.08" r="1.51"/><circle class="cls-2" cx="52.3" cy="93.08" r="1.51"/><circle class="cls-2" cx="56.84" cy="93.08" r="1.51"/><circle class="cls-2" cx="61.39" cy="93.08" r="1.51"/><circle class="cls-2" cx="65.93" cy="93.08" r="1.51"/><circle class="cls-2" cx="70.48" cy="93.08" r="1.51"/><circle class="cls-2" cx="75.02" cy="93.08" r="1.51"/><circle class="cls-2" cx="79.57" cy="93.08" r="1.51"/><circle class="cls-2" cx="84.11" cy="93.08" r="1.51"/><circle class="cls-2" cx="88.66" cy="93.08" r="1.51"/><circle class="cls-2" cx="93.2" cy="93.08" r="1.51"/><circle class="cls-2" cx="97.75" cy="93.08" r="1.51"/><circle class="cls-2" cx="2.31" cy="88.53" r="1.51"/><circle class="cls-2" cx="6.85" cy="88.53" r="1.51"/><circle class="cls-2" cx="11.4" cy="88.53" r="1.51"/><circle class="cls-2" cx="15.94" cy="88.53" r="1.51"/><circle class="cls-2" cx="20.49" cy="88.53" r="1.51"/><circle class="cls-2" cx="25.03" cy="88.53" r="1.51"/><circle class="cls-2" cx="29.58" cy="88.53" r="1.51"/><circle class="cls-2" cx="34.12" cy="88.53" r="1.51"/><circle class="cls-2" cx="38.67" cy="88.53" r="1.51"/><circle class="cls-2" cx="43.21" cy="88.53" r="1.51"/><circle class="cls-2" cx="47.76" cy="88.53" r="1.51"/><circle class="cls-2" cx="52.3" cy="88.53" r="1.51"/><circle class="cls-2" cx="56.84" cy="88.53" r="1.51"/><circle class="cls-2" cx="61.39" cy="88.53" r="1.51"/><circle class="cls-2" cx="65.93" cy="88.53" r="1.51"/><circle class="cls-2" cx="70.48" cy="88.53" r="1.51"/><circle class="cls-2" cx="75.02" cy="88.53" r="1.51"/><circle class="cls-2" cx="79.57" cy="88.53" r="1.51"/><circle class="cls-2" cx="84.11" cy="88.53" r="1.51"/><circle class="cls-2" cx="88.66" cy="88.53" r="1.51"/><circle class="cls-2" cx="93.2" cy="88.53" r="1.51"/><circle class="cls-2" cx="97.75" cy="88.53" r="1.51"/><circle class="cls-2" cx="2.31" cy="83.97" r="1.51"/><circle class="cls-2" cx="6.85" cy="83.97" r="1.51"/><circle class="cls-2" cx="11.4" cy="83.97" r="1.51"/><circle class="cls-2" cx="15.94" cy="83.97" r="1.51"/><circle class="cls-2" cx="20.49" cy="83.97" r="1.51"/><circle class="cls-2" cx="25.03" cy="83.97" r="1.51"/><circle class="cls-2" cx="29.58" cy="83.97" r="1.51"/><circle class="cls-2" cx="34.12" cy="83.97" r="1.51"/><circle class="cls-2" cx="38.67" cy="83.97" r="1.51"/><circle class="cls-2" cx="43.21" cy="83.97" r="1.51"/><circle class="cls-2" cx="47.76" cy="83.97" r="1.51"/><circle class="cls-2" cx="52.3" cy="83.97" r="1.51"/><circle class="cls-2" cx="56.84" cy="83.97" r="1.51"/><circle class="cls-2" cx="61.39" cy="83.97" r="1.51"/><circle class="cls-2" cx="65.93" cy="83.97" r="1.51"/><circle class="cls-2" cx="70.48" cy="83.97" r="1.51"/><circle class="cls-2" cx="75.02" cy="83.97" r="1.51"/><circle class="cls-2" cx="79.57" cy="83.97" r="1.51"/><circle class="cls-2" cx="84.11" cy="83.97" r="1.51"/><circle class="cls-2" cx="88.66" cy="83.97" r="1.51"/><circle class="cls-2" cx="93.2" cy="83.97" r="1.51"/><circle class="cls-2" cx="97.75" cy="83.97" r="1.51"/><circle class="cls-2" cx="2.31" cy="79.42" r="1.51"/><circle class="cls-2" cx="6.85" cy="79.42" r="1.51"/><circle class="cls-2" cx="11.4" cy="79.42" r="1.51"/><circle class="cls-2" cx="15.94" cy="79.42" r="1.51"/><circle class="cls-2" cx="20.49" cy="79.42" r="1.51"/><circle class="cls-2" cx="25.03" cy="79.42" r="1.51"/><circle class="cls-2" cx="29.58" cy="79.42" r="1.51"/><circle class="cls-2" cx="34.12" cy="79.42" r="1.51"/><circle class="cls-2" cx="38.67" cy="79.42" r="1.51"/><circle class="cls-2" cx="43.21" cy="79.42" r="1.51"/><circle class="cls-2" cx="47.76" cy="79.42" r="1.51"/><circle class="cls-2" cx="52.3" cy="79.42" r="1.51"/><circle class="cls-2" cx="56.84" cy="79.42" r="1.51"/><circle class="cls-2" cx="61.39" cy="79.42" r="1.51"/><circle class="cls-2" cx="65.93" cy="79.42" r="1.51"/><circle class="cls-2" cx="70.48" cy="79.42" r="1.51"/><circle class="cls-2" cx="75.02" cy="79.42" r="1.51"/><circle class="cls-2" cx="79.57" cy="79.42" r="1.51"/><circle class="cls-2" cx="84.11" cy="79.42" r="1.51"/><circle class="cls-2" cx="88.66" cy="79.42" r="1.51"/><circle class="cls-2" cx="93.2" cy="79.42" r="1.51"/><circle class="cls-2" cx="97.75" cy="79.42" r="1.51"/><circle class="cls-2" cx="2.31" cy="74.86" r="1.51"/><circle class="cls-2" cx="6.85" cy="74.86" r="1.51"/><circle class="cls-2" cx="11.4" cy="74.86" r="1.51"/><circle class="cls-2" cx="15.94" cy="74.86" r="1.51"/><circle class="cls-2" cx="20.49" cy="74.86" r="1.51"/><circle class="cls-2" cx="25.03" cy="74.86" r="1.51"/><circle class="cls-2" cx="29.58" cy="74.86" r="1.51"/><circle class="cls-2" cx="34.12" cy="74.86" r="1.51"/><circle class="cls-2" cx="38.67" cy="74.86" r="1.51"/><circle class="cls-2" cx="43.21" cy="74.86" r="1.51"/><circle class="cls-2" cx="47.76" cy="74.86" r="1.51"/><circle class="cls-2" cx="52.3" cy="74.86" r="1.51"/><circle class="cls-2" cx="56.84" cy="74.86" r="1.51"/><circle class="cls-2" cx="61.39" cy="74.86" r="1.51"/><circle class="cls-2" cx="65.93" cy="74.86" r="1.51"/><circle class="cls-2" cx="70.48" cy="74.86" r="1.51"/><circle class="cls-2" cx="75.02" cy="74.86" r="1.51"/><circle class="cls-2" cx="79.57" cy="74.86" r="1.51"/><circle class="cls-2" cx="84.11" cy="74.86" r="1.51"/><circle class="cls-2" cx="88.66" cy="74.86" r="1.51"/><circle class="cls-2" cx="93.2" cy="74.86" r="1.51"/><circle class="cls-2" cx="97.75" cy="74.86" r="1.51"/><circle class="cls-2" cx="2.31" cy="70.31" r="1.51"/><circle class="cls-2" cx="6.85" cy="70.31" r="1.51"/><circle class="cls-2" cx="11.4" cy="70.31" r="1.51"/><circle class="cls-2" cx="15.94" cy="70.31" r="1.51"/><circle class="cls-2" cx="20.49" cy="70.31" r="1.51"/><circle class="cls-2" cx="25.03" cy="70.31" r="1.51"/><circle class="cls-2" cx="29.58" cy="70.31" r="1.51"/><circle class="cls-2" cx="34.12" cy="70.31" r="1.51"/><circle class="cls-2" cx="38.67" cy="70.31" r="1.51"/><circle class="cls-2" cx="43.21" cy="70.31" r="1.51"/><circle class="cls-2" cx="47.76" cy="70.31" r="1.51"/><circle class="cls-2" cx="52.3" cy="70.31" r="1.51"/><circle class="cls-2" cx="56.84" cy="70.31" r="1.51"/><circle class="cls-2" cx="61.39" cy="70.31" r="1.51"/><circle class="cls-2" cx="65.93" cy="70.31" r="1.51"/><circle class="cls-2" cx="70.48" cy="70.31" r="1.51"/><circle class="cls-2" cx="75.02" cy="70.31" r="1.51"/><circle class="cls-2" cx="79.57" cy="70.31" r="1.51"/><circle class="cls-2" cx="84.11" cy="70.31" r="1.51"/><circle class="cls-2" cx="88.66" cy="70.31" r="1.51"/><circle class="cls-2" cx="93.2" cy="70.31" r="1.51"/><circle class="cls-2" cx="97.75" cy="70.31" r="1.51"/><circle class="cls-2" cx="2.31" cy="65.75" r="1.51"/><circle class="cls-2" cx="6.85" cy="65.75" r="1.51"/><circle class="cls-2" cx="11.4" cy="65.75" r="1.51"/><circle class="cls-2" cx="15.94" cy="65.75" r="1.51"/><circle class="cls-2" cx="20.49" cy="65.75" r="1.51"/><circle class="cls-2" cx="25.03" cy="65.75" r="1.51"/><circle class="cls-2" cx="29.58" cy="65.75" r="1.51"/><circle class="cls-2" cx="34.12" cy="65.75" r="1.51"/><circle class="cls-2" cx="38.67" cy="65.75" r="1.51"/><circle class="cls-2" cx="43.21" cy="65.75" r="1.51"/><circle class="cls-2" cx="47.76" cy="65.75" r="1.51"/><circle class="cls-2" cx="52.3" cy="65.75" r="1.51"/><circle class="cls-2" cx="56.84" cy="65.75" r="1.51"/><circle class="cls-2" cx="61.39" cy="65.75" r="1.51"/><circle class="cls-2" cx="65.93" cy="65.75" r="1.51"/><circle class="cls-2" cx="70.48" cy="65.75" r="1.51"/><circle class="cls-2" cx="75.02" cy="65.75" r="1.51"/><circle class="cls-2" cx="79.57" cy="65.75" r="1.51"/><circle class="cls-2" cx="84.11" cy="65.75" r="1.51"/><circle class="cls-2" cx="88.66" cy="65.75" r="1.51"/><circle class="cls-2" cx="93.2" cy="65.75" r="1.51"/><circle class="cls-2" cx="97.75" cy="65.75" r="1.51"/><circle class="cls-2" cx="2.31" cy="61.2" r="1.51"/><circle class="cls-2" cx="6.85" cy="61.2" r="1.51"/><circle class="cls-2" cx="11.4" cy="61.2" r="1.51"/><circle class="cls-2" cx="15.94" cy="61.2" r="1.51"/><circle class="cls-2" cx="20.49" cy="61.2" r="1.51"/><circle class="cls-2" cx="25.03" cy="61.2" r="1.51"/><circle class="cls-2" cx="29.58" cy="61.2" r="1.51"/><circle class="cls-2" cx="34.12" cy="61.2" r="1.51"/><circle class="cls-2" cx="38.67" cy="61.2" r="1.51"/><circle class="cls-2" cx="43.21" cy="61.2" r="1.51"/><circle class="cls-2" cx="47.76" cy="61.2" r="1.51"/><circle class="cls-2" cx="52.3" cy="61.2" r="1.51"/><circle class="cls-2" cx="56.84" cy="61.2" r="1.51"/><circle class="cls-2" cx="61.39" cy="61.2" r="1.51"/><circle class="cls-2" cx="65.93" cy="61.2" r="1.51"/><circle class="cls-2" cx="70.48" cy="61.2" r="1.51"/><circle class="cls-2" cx="75.02" cy="61.2" r="1.51"/><circle class="cls-2" cx="79.57" cy="61.2" r="1.51"/><circle class="cls-2" cx="84.11" cy="61.2" r="1.51"/><circle class="cls-2" cx="88.66" cy="61.2" r="1.51"/><circle class="cls-2" cx="93.2" cy="61.2" r="1.51"/><circle class="cls-2" cx="97.75" cy="61.2" r="1.51"/><circle class="cls-2" cx="2.31" cy="56.65" r="1.51"/><circle class="cls-2" cx="6.85" cy="56.65" r="1.51"/><circle class="cls-2" cx="11.4" cy="56.65" r="1.51"/><circle class="cls-2" cx="15.94" cy="56.65" r="1.51"/><circle class="cls-2" cx="20.49" cy="56.65" r="1.51"/><circle class="cls-2" cx="25.03" cy="56.65" r="1.51"/><circle class="cls-2" cx="29.58" cy="56.65" r="1.51"/><circle class="cls-2" cx="34.12" cy="56.65" r="1.51"/><circle class="cls-2" cx="38.67" cy="56.65" r="1.51"/><circle class="cls-2" cx="43.21" cy="56.65" r="1.51"/><circle class="cls-2" cx="47.76" cy="56.65" r="1.51"/><circle class="cls-2" cx="52.3" cy="56.65" r="1.51"/><circle class="cls-2" cx="56.84" cy="56.65" r="1.51"/><circle class="cls-2" cx="61.39" cy="56.65" r="1.51"/><circle class="cls-2" cx="65.93" cy="56.65" r="1.51"/><circle class="cls-2" cx="70.48" cy="56.65" r="1.51"/><circle class="cls-2" cx="75.02" cy="56.65" r="1.51"/><circle class="cls-2" cx="79.57" cy="56.65" r="1.51"/><circle class="cls-2" cx="84.11" cy="56.65" r="1.51"/><circle class="cls-2" cx="88.66" cy="56.65" r="1.51"/><circle class="cls-2" cx="93.2" cy="56.65" r="1.51"/><circle class="cls-2" cx="97.75" cy="56.65" r="1.51"/><circle class="cls-2" cx="2.31" cy="52.09" r="1.51"/><circle class="cls-2" cx="6.85" cy="52.09" r="1.51"/><circle class="cls-2" cx="11.4" cy="52.09" r="1.51"/><circle class="cls-2" cx="15.94" cy="52.09" r="1.51"/><circle class="cls-2" cx="20.49" cy="52.09" r="1.51"/><circle class="cls-2" cx="25.03" cy="52.09" r="1.51"/><circle class="cls-2" cx="29.58" cy="52.09" r="1.51"/><circle class="cls-2" cx="34.12" cy="52.09" r="1.51"/><circle class="cls-2" cx="38.67" cy="52.09" r="1.51"/><circle class="cls-2" cx="43.21" cy="52.09" r="1.51"/><circle class="cls-2" cx="47.76" cy="52.09" r="1.51"/><circle class="cls-2" cx="52.3" cy="52.09" r="1.51"/><circle class="cls-2" cx="56.84" cy="52.09" r="1.51"/><circle class="cls-2" cx="61.39" cy="52.09" r="1.51"/><circle class="cls-2" cx="65.93" cy="52.09" r="1.51"/><circle class="cls-2" cx="70.48" cy="52.09" r="1.51"/><circle class="cls-2" cx="75.02" cy="52.09" r="1.51"/><circle class="cls-2" cx="79.57" cy="52.09" r="1.51"/><circle class="cls-2" cx="84.11" cy="52.09" r="1.51"/><circle class="cls-2" cx="88.66" cy="52.09" r="1.51"/><circle class="cls-2" cx="93.2" cy="52.09" r="1.51"/><circle class="cls-2" cx="97.75" cy="52.09" r="1.51"/><circle class="cls-2" cx="2.31" cy="47.54" r="1.51"/><circle class="cls-2" cx="6.85" cy="47.54" r="1.51"/><circle class="cls-2" cx="11.4" cy="47.54" r="1.51"/><circle class="cls-2" cx="15.94" cy="47.54" r="1.51"/><circle class="cls-2" cx="20.49" cy="47.54" r="1.51"/><circle class="cls-2" cx="25.03" cy="47.54" r="1.51"/><circle class="cls-2" cx="29.58" cy="47.54" r="1.51"/><circle class="cls-2" cx="34.12" cy="47.54" r="1.51"/><circle class="cls-2" cx="38.67" cy="47.54" r="1.51"/><circle class="cls-2" cx="43.21" cy="47.54" r="1.51"/><circle class="cls-2" cx="47.76" cy="47.54" r="1.51"/><circle class="cls-2" cx="52.3" cy="47.54" r="1.51"/><circle class="cls-2" cx="56.84" cy="47.54" r="1.51"/><circle class="cls-2" cx="61.39" cy="47.54" r="1.51"/><circle class="cls-2" cx="65.93" cy="47.54" r="1.51"/><circle class="cls-2" cx="70.48" cy="47.54" r="1.51"/><circle class="cls-2" cx="75.02" cy="47.54" r="1.51"/><circle class="cls-2" cx="79.57" cy="47.54" r="1.51"/><circle class="cls-2" cx="84.11" cy="47.54" r="1.51"/><circle class="cls-2" cx="88.66" cy="47.54" r="1.51"/><circle class="cls-2" cx="93.2" cy="47.54" r="1.51"/><circle class="cls-2" cx="97.75" cy="47.54" r="1.51"/><circle class="cls-2" cx="2.31" cy="42.98" r="1.51"/><circle class="cls-2" cx="6.85" cy="42.98" r="1.51"/><circle class="cls-2" cx="11.4" cy="42.98" r="1.51"/><circle class="cls-2" cx="15.94" cy="42.98" r="1.51"/><circle class="cls-2" cx="20.49" cy="42.98" r="1.51"/><circle class="cls-2" cx="25.03" cy="42.98" r="1.51"/><circle class="cls-2" cx="29.58" cy="42.98" r="1.51"/><circle class="cls-2" cx="34.12" cy="42.98" r="1.51"/><circle class="cls-2" cx="38.67" cy="42.98" r="1.51"/><circle class="cls-2" cx="43.21" cy="42.98" r="1.51"/><circle class="cls-2" cx="47.76" cy="42.98" r="1.51"/><circle class="cls-2" cx="52.3" cy="42.98" r="1.51"/><circle class="cls-2" cx="56.84" cy="42.98" r="1.51"/><circle class="cls-2" cx="61.39" cy="42.98" r="1.51"/><circle class="cls-2" cx="65.93" cy="42.98" r="1.51"/><circle class="cls-2" cx="70.48" cy="42.98" r="1.51"/><circle class="cls-2" cx="75.02" cy="42.98" r="1.51"/><circle class="cls-2" cx="79.57" cy="42.98" r="1.51"/><circle class="cls-2" cx="84.11" cy="42.98" r="1.51"/><circle class="cls-2" cx="88.66" cy="42.98" r="1.51"/><circle class="cls-2" cx="93.2" cy="42.98" r="1.51"/><circle class="cls-2" cx="97.75" cy="42.98" r="1.51"/><circle class="cls-2" cx="2.31" cy="38.43" r="1.51"/><circle class="cls-2" cx="6.85" cy="38.43" r="1.51"/><circle class="cls-2" cx="11.4" cy="38.43" r="1.51"/><circle class="cls-2" cx="15.94" cy="38.43" r="1.51"/><circle class="cls-2" cx="20.49" cy="38.43" r="1.51"/><circle class="cls-2" cx="25.03" cy="38.43" r="1.51"/><circle class="cls-2" cx="29.58" cy="38.43" r="1.51"/><circle class="cls-2" cx="34.12" cy="38.43" r="1.51"/><circle class="cls-2" cx="38.67" cy="38.43" r="1.51"/><circle class="cls-2" cx="43.21" cy="38.43" r="1.51"/><circle class="cls-2" cx="47.76" cy="38.43" r="1.51"/><circle class="cls-2" cx="52.3" cy="38.43" r="1.51"/><circle class="cls-2" cx="56.84" cy="38.43" r="1.51"/><circle class="cls-2" cx="61.39" cy="38.43" r="1.51"/><circle class="cls-2" cx="65.93" cy="38.43" r="1.51"/><circle class="cls-2" cx="70.48" cy="38.43" r="1.51"/><circle class="cls-2" cx="75.02" cy="38.43" r="1.51"/><circle class="cls-2" cx="79.57" cy="38.43" r="1.51"/><circle class="cls-2" cx="84.11" cy="38.43" r="1.51"/><circle class="cls-2" cx="88.66" cy="38.43" r="1.51"/><circle class="cls-2" cx="93.2" cy="38.43" r="1.51"/><circle class="cls-2" cx="97.75" cy="38.43" r="1.51"/><circle class="cls-2" cx="2.31" cy="33.87" r="1.51"/><circle class="cls-2" cx="6.85" cy="33.87" r="1.51"/><circle class="cls-2" cx="11.4" cy="33.87" r="1.51"/><circle class="cls-2" cx="15.94" cy="33.87" r="1.51"/><circle class="cls-2" cx="20.49" cy="33.87" r="1.51"/><circle class="cls-2" cx="25.03" cy="33.87" r="1.51"/><circle class="cls-2" cx="29.58" cy="33.87" r="1.51"/><circle class="cls-2" cx="34.12" cy="33.87" r="1.51"/><circle class="cls-2" cx="38.67" cy="33.87" r="1.51"/><circle class="cls-2" cx="43.21" cy="33.87" r="1.51"/><circle class="cls-2" cx="47.76" cy="33.87" r="1.51"/><circle class="cls-2" cx="52.3" cy="33.87" r="1.51"/><circle class="cls-2" cx="56.84" cy="33.87" r="1.51"/><circle class="cls-2" cx="61.39" cy="33.87" r="1.51"/><circle class="cls-2" cx="65.93" cy="33.87" r="1.51"/><circle class="cls-2" cx="70.48" cy="33.87" r="1.51"/><circle class="cls-2" cx="75.02" cy="33.87" r="1.51"/><circle class="cls-2" cx="79.57" cy="33.87" r="1.51"/><circle class="cls-2" cx="84.11" cy="33.87" r="1.51"/><circle class="cls-2" cx="88.66" cy="33.87" r="1.51"/><circle class="cls-2" cx="93.2" cy="33.87" r="1.51"/><circle class="cls-2" cx="97.75" cy="33.87" r="1.51"/><circle class="cls-2" cx="2.31" cy="29.32" r="1.51"/><circle class="cls-2" cx="6.85" cy="29.32" r="1.51"/><circle class="cls-2" cx="11.4" cy="29.32" r="1.51"/><circle class="cls-2" cx="15.94" cy="29.32" r="1.51"/><circle class="cls-2" cx="20.49" cy="29.32" r="1.51"/><circle class="cls-2" cx="25.03" cy="29.32" r="1.51"/><circle class="cls-2" cx="29.58" cy="29.32" r="1.51"/><circle class="cls-2" cx="34.12" cy="29.32" r="1.51"/><circle class="cls-2" cx="38.67" cy="29.32" r="1.51"/><circle class="cls-2" cx="43.21" cy="29.32" r="1.51"/><circle class="cls-2" cx="47.76" cy="29.32" r="1.51"/><circle class="cls-2" cx="52.3" cy="29.32" r="1.51"/><circle class="cls-2" cx="56.84" cy="29.32" r="1.51"/><circle class="cls-2" cx="61.39" cy="29.32" r="1.51"/><circle class="cls-2" cx="65.93" cy="29.32" r="1.51"/><circle class="cls-2" cx="70.48" cy="29.32" r="1.51"/><circle class="cls-2" cx="75.02" cy="29.32" r="1.51"/><circle class="cls-2" cx="79.57" cy="29.32" r="1.51"/><circle class="cls-2" cx="84.11" cy="29.32" r="1.51"/><circle class="cls-2" cx="88.66" cy="29.32" r="1.51"/><circle class="cls-2" cx="93.2" cy="29.32" r="1.51"/><circle class="cls-2" cx="97.75" cy="29.32" r="1.51"/><circle class="cls-2" cx="2.31" cy="24.76" r="1.51"/><circle class="cls-2" cx="6.85" cy="24.76" r="1.51"/><circle class="cls-2" cx="11.4" cy="24.76" r="1.51"/><circle class="cls-2" cx="15.94" cy="24.76" r="1.51"/><circle class="cls-2" cx="20.49" cy="24.76" r="1.51"/><circle class="cls-2" cx="25.03" cy="24.76" r="1.51"/><circle class="cls-2" cx="29.58" cy="24.76" r="1.51"/><circle class="cls-2" cx="34.12" cy="24.76" r="1.51"/><circle class="cls-2" cx="38.67" cy="24.76" r="1.51"/><circle class="cls-2" cx="43.21" cy="24.76" r="1.51"/><circle class="cls-2" cx="47.76" cy="24.76" r="1.51"/><circle class="cls-2" cx="52.3" cy="24.76" r="1.51"/><circle class="cls-2" cx="56.84" cy="24.76" r="1.51"/><circle class="cls-2" cx="61.39" cy="24.76" r="1.51"/><circle class="cls-2" cx="65.93" cy="24.76" r="1.51"/><circle class="cls-2" cx="70.48" cy="24.76" r="1.51"/><circle class="cls-2" cx="75.02" cy="24.76" r="1.51"/><circle class="cls-2" cx="79.57" cy="24.76" r="1.51"/><circle class="cls-2" cx="84.11" cy="24.76" r="1.51"/><circle class="cls-2" cx="88.66" cy="24.76" r="1.51"/><circle class="cls-2" cx="93.2" cy="24.76" r="1.51"/><circle class="cls-2" cx="97.75" cy="24.76" r="1.51"/><circle class="cls-2" cx="2.31" cy="20.21" r="1.51"/><circle class="cls-2" cx="6.85" cy="20.21" r="1.51"/><circle class="cls-2" cx="11.4" cy="20.21" r="1.51"/><circle class="cls-2" cx="15.94" cy="20.21" r="1.51"/><circle class="cls-2" cx="20.49" cy="20.21" r="1.51"/><circle class="cls-2" cx="25.03" cy="20.21" r="1.51"/><circle class="cls-2" cx="29.58" cy="20.21" r="1.51"/><circle class="cls-2" cx="34.12" cy="20.21" r="1.51"/><circle class="cls-2" cx="38.67" cy="20.21" r="1.51"/><circle class="cls-2" cx="43.21" cy="20.21" r="1.51"/><circle class="cls-2" cx="47.76" cy="20.21" r="1.51"/><circle class="cls-2" cx="52.3" cy="20.21" r="1.51"/><circle class="cls-2" cx="56.84" cy="20.21" r="1.51"/><circle class="cls-2" cx="61.39" cy="20.21" r="1.51"/><circle class="cls-2" cx="65.93" cy="20.21" r="1.51"/><circle class="cls-2" cx="70.48" cy="20.21" r="1.51"/><circle class="cls-2" cx="75.02" cy="20.21" r="1.51"/><circle class="cls-2" cx="79.57" cy="20.21" r="1.51"/><circle class="cls-2" cx="84.11" cy="20.21" r="1.51"/><circle class="cls-2" cx="88.66" cy="20.21" r="1.51"/><circle class="cls-2" cx="93.2" cy="20.21" r="1.51"/><circle class="cls-2" cx="97.75" cy="20.21" r="1.51"/><circle class="cls-2" cx="2.31" cy="15.66" r="1.51"/><circle class="cls-2" cx="6.85" cy="15.66" r="1.51"/><circle class="cls-2" cx="11.4" cy="15.66" r="1.51"/><circle class="cls-2" cx="15.94" cy="15.66" r="1.51"/><circle class="cls-2" cx="20.49" cy="15.66" r="1.51"/><circle class="cls-2" cx="25.03" cy="15.66" r="1.51"/><circle class="cls-2" cx="29.58" cy="15.66" r="1.51"/><circle class="cls-2" cx="34.12" cy="15.66" r="1.51"/><circle class="cls-2" cx="38.67" cy="15.66" r="1.51"/><circle class="cls-2" cx="43.21" cy="15.66" r="1.51"/><circle class="cls-2" cx="47.76" cy="15.66" r="1.51"/><circle class="cls-2" cx="52.3" cy="15.66" r="1.51"/><circle class="cls-2" cx="56.84" cy="15.66" r="1.51"/><circle class="cls-2" cx="61.39" cy="15.66" r="1.51"/><circle class="cls-2" cx="65.93" cy="15.66" r="1.51"/><circle class="cls-2" cx="70.48" cy="15.66" r="1.51"/><circle class="cls-2" cx="75.02" cy="15.66" r="1.51"/><circle class="cls-2" cx="79.57" cy="15.66" r="1.51"/><circle class="cls-2" cx="84.11" cy="15.66" r="1.51"/><circle class="cls-2" cx="88.66" cy="15.66" r="1.51"/><circle class="cls-2" cx="93.2" cy="15.66" r="1.51"/><circle class="cls-2" cx="97.75" cy="15.66" r="1.51"/><circle class="cls-2" cx="2.31" cy="11.1" r="1.51"/><circle class="cls-2" cx="6.85" cy="11.1" r="1.51"/><circle class="cls-2" cx="11.4" cy="11.1" r="1.51"/><circle class="cls-2" cx="15.94" cy="11.1" r="1.51"/><circle class="cls-2" cx="20.49" cy="11.1" r="1.51"/><circle class="cls-2" cx="25.03" cy="11.1" r="1.51"/><circle class="cls-2" cx="29.58" cy="11.1" r="1.51"/><circle class="cls-2" cx="34.12" cy="11.1" r="1.51"/><circle class="cls-2" cx="38.67" cy="11.1" r="1.51"/><circle class="cls-2" cx="43.21" cy="11.1" r="1.51"/><circle class="cls-2" cx="47.76" cy="11.1" r="1.51"/><circle class="cls-2" cx="52.3" cy="11.1" r="1.51"/><circle class="cls-2" cx="56.84" cy="11.1" r="1.51"/><circle class="cls-2" cx="61.39" cy="11.1" r="1.51"/><circle class="cls-2" cx="65.93" cy="11.1" r="1.51"/><circle class="cls-2" cx="70.48" cy="11.1" r="1.51"/><circle class="cls-2" cx="75.02" cy="11.1" r="1.51"/><circle class="cls-2" cx="79.57" cy="11.1" r="1.51"/><circle class="cls-2" cx="84.11" cy="11.1" r="1.51"/><circle class="cls-2" cx="88.66" cy="11.1" r="1.51"/><circle class="cls-2" cx="93.2" cy="11.1" r="1.51"/><circle class="cls-2" cx="97.75" cy="11.1" r="1.51"/><circle class="cls-2" cx="2.31" cy="6.55" r="1.51"/><circle class="cls-2" cx="6.85" cy="6.55" r="1.51"/><circle class="cls-2" cx="11.4" cy="6.55" r="1.51"/><circle class="cls-2" cx="15.94" cy="6.55" r="1.51"/><circle class="cls-2" cx="20.49" cy="6.55" r="1.51"/><circle class="cls-2" cx="25.03" cy="6.55" r="1.51"/><circle class="cls-2" cx="29.58" cy="6.55" r="1.51"/><circle class="cls-2" cx="34.12" cy="6.55" r="1.51"/><circle class="cls-2" cx="38.67" cy="6.55" r="1.51"/><circle class="cls-2" cx="43.21" cy="6.55" r="1.51"/><circle class="cls-2" cx="47.76" cy="6.55" r="1.51"/><circle class="cls-2" cx="52.3" cy="6.55" r="1.51"/><circle class="cls-2" cx="56.84" cy="6.55" r="1.51"/><circle class="cls-2" cx="61.39" cy="6.55" r="1.51"/><circle class="cls-2" cx="65.93" cy="6.55" r="1.51"/><circle class="cls-2" cx="70.48" cy="6.55" r="1.51"/><circle class="cls-2" cx="75.02" cy="6.55" r="1.51"/><circle class="cls-2" cx="79.57" cy="6.55" r="1.51"/><circle class="cls-2" cx="84.11" cy="6.55" r="1.51"/><circle class="cls-2" cx="88.66" cy="6.55" r="1.51"/><circle class="cls-2" cx="93.2" cy="6.55" r="1.51"/><circle class="cls-2" cx="97.75" cy="6.55" r="1.51"/><circle class="cls-2" cx="2.31" cy="1.99" r="1.51"/><circle class="cls-2" cx="6.85" cy="1.99" r="1.51"/><circle class="cls-2" cx="11.4" cy="1.99" r="1.51"/><circle class="cls-2" cx="15.94" cy="1.99" r="1.51"/><circle class="cls-2" cx="20.49" cy="1.99" r="1.51"/><circle class="cls-2" cx="25.03" cy="1.99" r="1.51"/><circle class="cls-2" cx="29.58" cy="1.99" r="1.51"/><circle class="cls-2" cx="34.12" cy="1.99" r="1.51"/><circle class="cls-2" cx="38.67" cy="1.99" r="1.51"/><circle class="cls-2" cx="43.21" cy="1.99" r="1.51"/><circle class="cls-2" cx="47.76" cy="1.99" r="1.51"/><circle class="cls-2" cx="52.3" cy="1.99" r="1.51"/><circle class="cls-2" cx="56.84" cy="1.99" r="1.51"/><circle class="cls-2" cx="61.39" cy="1.99" r="1.51"/><circle class="cls-2" cx="65.93" cy="1.99" r="1.51"/><circle class="cls-2" cx="70.48" cy="1.99" r="1.51"/><circle class="cls-2" cx="75.02" cy="1.99" r="1.51"/><circle class="cls-2" cx="79.57" cy="1.99" r="1.51"/><circle class="cls-2" cx="84.11" cy="1.99" r="1.51"/><circle class="cls-2" cx="88.66" cy="1.99" r="1.51"/><circle class="cls-2" cx="93.2" cy="1.99" r="1.51"/><circle class="cls-2" cx="97.75" cy="1.99" r="1.51"/></pattern>
  </defs>
  <g id="Calque_2" data-name="Calque 2">
    <g id="Calque_1-2" data-name="Calque 1"><path class="cls-2" d="M0,12.88A12.86,12.86,0,1,1,12.86,25.76,12.79,12.79,0,0,1,0,12.88Zm23.86,0a11,11,0,1,0-11.1,11A11,11,0,0,0,23.86,12.89Z"/><path class="cls-2" d="M20.9,17.83H13.72v4H11.91v-4H4.77V16.08H20.9Z"/><path class="cls-2" d="M5.3,13.35l.36-1c.09-.23.19-.46.31-.75a18.41,18.41,0,0,0,13.73,0l.66,1.75A20.41,20.41,0,0,1,5.3,13.35Z"/><path class="cls-2" d="M17.26,8l1.32,1.22a8,8,0,0,1-11.5.07L8.37,8A6.39,6.39,0,0,0,17.26,8Z"/><path class="cls-2" d="M11.48,5.4A1.42,1.42,0,0,1,10.1,6.84,1.39,1.39,0,0,1,8.64,5.43,1.42,1.42,0,0,1,10.07,4,1.44,1.44,0,0,1,11.48,5.4Z"/><path class="cls-2" d="M15.62,6.84A1.43,1.43,0,0,1,14.2,5.37a1.44,1.44,0,1,1,2.87.1A1.44,1.44,0,0,1,15.62,6.84Z"/><path class="cls-3" d="M.6,35.13V29.31H1.74L4.12,33.2V29.31H5.21v5.82H4L1.69,31.34v3.79Z"/><path class="cls-3" d="M6.22,32.26a3.79,3.79,0,0,1,.26-1.49A2.57,2.57,0,0,1,7,30a2.11,2.11,0,0,1,.76-.52A3,3,0,0,1,9,29.22a2.72,2.72,0,0,1,2.05.79,3,3,0,0,1,.78,2.22,3,3,0,0,1-.77,2.2,2.71,2.71,0,0,1-2.05.8A2.77,2.77,0,0,1,7,34.44,3,3,0,0,1,6.22,32.26Zm1.21,0a2.19,2.19,0,0,0,.45,1.49,1.57,1.57,0,0,0,2.31,0,2.24,2.24,0,0,0,.45-1.52,2.16,2.16,0,0,0-.44-1.49A1.47,1.47,0,0,0,9,30.22a1.48,1.48,0,0,0-1.17.5A2.17,2.17,0,0,0,7.43,32.22Z"/><path class="cls-3" d="M13.59,35.13l-1.38-5.82h1.2l.88,4,1.06-4h1.39l1,4.07.89-4.07h1.19l-1.42,5.82H17.18L16,30.78l-1.15,4.35Z"/><path class="cls-4" d="M20.43,29.31H21.6v3.15a8.34,8.34,0,0,0,0,1A1,1,0,0,0,22,34a1.29,1.29,0,0,0,.78.21,1.16,1.16,0,0,0,.75-.2.84.84,0,0,0,.31-.5,7.32,7.32,0,0,0,.05-1V29.31h1.17v3.06A8.3,8.3,0,0,1,25,33.85a1.77,1.77,0,0,1-.35.73,1.87,1.87,0,0,1-.69.47,2.91,2.91,0,0,1-1.12.18,3.18,3.18,0,0,1-1.26-.2,1.68,1.68,0,0,1-.68-.5,1.51,1.51,0,0,1-.33-.64,6.88,6.88,0,0,1-.11-1.48Z"/></g>
  </g>
</svg>
