<svg width="320" height="36" viewBox="0 0 320 36" fill="none" xmlns="http://www.w3.org/2000/svg">
  <path d="M141.002 33.4384C140.94 32.0512 142.616 29.2348 143.461 28L144.768 30.0493C145.814 31.6887 146.024 32.9918 145.998 33.4384C145.937 35.3931 144.281 35.9606 143.461 36C141.463 35.9369 140.989 34.266 141.002 33.4384Z" fill="#F3A005"/>
  <path d="M130.472 0.0809942C139.017 0.0362593 145.981 6.9272 146.026 15.4723C146.07 24.0175 139.179 30.981 130.634 31.0257C122.089 31.0704 115.126 24.1795 115.081 15.6343C115.036 7.0892 121.927 0.125729 130.472 0.0809942Z" fill="url(#paint0_linear)"/>
  <path d="M131.537 17.7417V22H129.047V9.91406H133.762C134.669 9.91406 135.466 10.0801 136.153 10.4121C136.844 10.7441 137.376 11.2173 137.746 11.8315C138.117 12.4403 138.302 13.1348 138.302 13.915C138.302 15.0993 137.896 16.0345 137.082 16.7207C136.274 17.4014 135.154 17.7417 133.72 17.7417H131.537ZM131.537 15.7246H133.762C134.42 15.7246 134.921 15.5697 135.264 15.2598C135.613 14.9499 135.787 14.5072 135.787 13.9316C135.787 13.3395 135.613 12.8608 135.264 12.4956C134.916 12.1304 134.434 11.9422 133.82 11.9312H131.537V15.7246ZM148.667 22H146.177V16.8203H141.321V22H138.831V9.91406H141.321V14.8115H146.177V9.91406H148.667V22ZM159.455 16.2725C159.455 17.4567 159.25 18.4971 158.841 19.3936C158.431 20.2845 157.845 20.9707 157.081 21.4521C156.323 21.9281 155.449 22.166 154.458 22.166C153.479 22.166 152.604 21.9281 151.835 21.4521C151.071 20.9707 150.479 20.2873 150.059 19.4019C149.644 18.5164 149.433 17.4954 149.428 16.3389V15.6582C149.428 14.4795 149.635 13.4391 150.05 12.5371C150.471 11.6351 151.06 10.9461 151.818 10.4702C152.582 9.98877 153.456 9.74805 154.441 9.74805C155.426 9.74805 156.298 9.986 157.056 10.4619C157.82 10.9323 158.409 11.613 158.824 12.5039C159.239 13.3893 159.45 14.4214 159.455 15.6001V16.2725ZM157.355 15.6416C157.355 14.3024 157.1 13.2759 156.591 12.562C156.088 11.8481 155.371 11.4912 154.441 11.4912C153.534 11.4912 152.823 11.8481 152.308 12.562C151.799 13.2703 151.539 14.2747 151.528 15.5752V16.2725C151.528 17.6006 151.785 18.6271 152.3 19.3521C152.82 20.077 153.539 20.4395 154.458 20.4395C155.388 20.4395 156.102 20.0853 156.6 19.377C157.103 18.6686 157.355 17.6338 157.355 16.2725V15.6416ZM167.363 16.4136H162.125V20.6968H168.209V22H160.531V9.91406H168.126V11.2256H162.125V15.1104H167.363V16.4136ZM178.292 22H176.69L170.605 12.6865V22H169.003V9.91406H170.605L176.706 19.269V9.91406H178.292V22ZM181.302 22H180.281V9.91406H181.302V22ZM186.944 15.4839L190.845 9.91406H191.409L187.226 15.8325L191.567 22H191.011L186.944 16.1812L182.86 22H182.32L186.661 15.8325L182.478 9.91406H183.042L186.944 15.4839Z" fill="white"/>
  <defs>
    <linearGradient id="paint0_linear" x1="130.634" y1="31.0257" x2="130.472" y2="0.0809942" gradientUnits="userSpaceOnUse">
      <stop stop-color="#F79D00"/>
      <stop offset="1" stop-color="#02FF86"/>
    </linearGradient>
  </defs>
</svg>
