<svg width="29" height="34" viewBox="0 0 29 34" fill="none" xmlns="http://www.w3.org/2000/svg">
<path d="M3.2312 0C1.45404 0 0 1.45714 0 3.2381V29.1429C0 30.9238 1.45404 32.381 3.2312 32.381H9.69359V29.3048L25.8496 13.1143V9.71429L16.156 0H3.2312ZM14.5404 2.42857L23.4262 11.3333H14.5404V2.42857ZM26.0111 17.8095C25.8496 17.8095 25.5265 17.9714 25.3649 18.1333L23.7493 19.7524L27.1421 23.1524L28.7577 21.5333C29.0808 21.2095 29.0808 20.5619 28.7577 20.2381L26.6574 18.1333C26.4958 17.9714 26.3343 17.8095 26.0111 17.8095ZM22.7799 20.7238L12.9248 30.6V34H16.3176L26.1727 24.1238L22.7799 20.7238Z" fill="white"/>
</svg>
