<svg width="34" height="29" viewBox="0 0 34 29" fill="none" xmlns="http://www.w3.org/2000/svg">
<path d="M16.3013 0L0 14.5H4.89039V27.3889H13.041V17.7222H19.5616V19.5106L28.4132 10.7622L16.3013 0ZM31.0377 13.1144C30.8009 13.1201 30.5745 13.2119 30.4019 13.3722L28.7718 14.9833L32.1136 18.2861L33.7437 16.675C33.908 16.5094 34 16.2867 34 16.0547C34 15.8228 33.908 15.6001 33.7437 15.4344L31.6571 13.3722C31.4941 13.2111 31.2659 13.1144 31.0377 13.1144ZM27.81 15.9178L17.9314 25.6811V29H21.2895L31.1518 19.2206L27.81 15.9178Z" fill="white"/>
</svg>
