<svg width="18" height="28" viewBox="0 0 18 28" fill="none" xmlns="http://www.w3.org/2000/svg">
<g filter="url(#filter0_d)">
<path d="M13.9966 10.0157C13.9973 10.3489 13.8811 10.6718 13.6682 10.9284L6.52907 19.4848C6.28671 19.7761 5.93845 19.9592 5.56089 19.994C5.18333 20.0287 4.80741 19.9123 4.51582 19.6702C4.22424 19.4282 4.04087 19.0803 4.00606 18.7032C3.97125 18.3261 4.08785 17.9507 4.3302 17.6595L10.7269 10.0157L4.55866 2.37192C4.44005 2.22605 4.35148 2.05821 4.29804 1.87804C4.24459 1.69787 4.22732 1.50893 4.24722 1.32207C4.26713 1.13521 4.32381 0.954128 4.41401 0.789221C4.50421 0.624315 4.62616 0.478838 4.77283 0.361155C4.91964 0.230555 5.09188 0.131643 5.27874 0.0706176C5.46561 0.00959199 5.66308 -0.01223 5.85878 0.00651161C6.05449 0.0252551 6.24421 0.0841617 6.41606 0.179541C6.58791 0.274921 6.73818 0.404722 6.85747 0.560806L13.7539 9.11726C13.9331 9.3812 14.0186 9.69753 13.9966 10.0157Z" fill="white"/>
</g>
<defs>
<filter id="filter0_d" x="1.52588e-05" y="0" width="18" height="28" filterUnits="userSpaceOnUse" color-interpolation-filters="sRGB">
<feFlood flood-opacity="0" result="BackgroundImageFix"/>
<feColorMatrix in="SourceAlpha" type="matrix" values="0 0 0 0 0 0 0 0 0 0 0 0 0 0 0 0 0 0 127 0"/>
<feOffset dy="4"/>
<feGaussianBlur stdDeviation="2"/>
<feColorMatrix type="matrix" values="0 0 0 0 0 0 0 0 0 0 0 0 0 0 0 0 0 0 0.25 0"/>
<feBlend mode="normal" in2="BackgroundImageFix" result="effect1_dropShadow"/>
<feBlend mode="normal" in="SourceGraphic" in2="effect1_dropShadow" result="shape"/>
</filter>
</defs>
</svg>
