<svg width="30" height="30" viewBox="0 0 30 30" fill="none" xmlns="http://www.w3.org/2000/svg">
<circle cx="15" cy="15" r="15" fill="#03DAC5"/>
<path fill-rule="evenodd" clip-rule="evenodd" d="M9.27274 12.2937C9.35898 12.2006 9.46143 12.1267 9.57421 12.0763C9.687 12.0259 9.80792 12 9.93003 12C10.0521 12 10.1731 12.0259 10.2858 12.0763C10.3986 12.1267 10.5011 12.2006 10.5873 12.2937L15.5002 17.5853L20.4132 12.2937C20.4995 12.2007 20.602 12.127 20.7147 12.0767C20.8275 12.0264 20.9484 12.0005 21.0705 12.0005C21.1925 12.0005 21.3134 12.0264 21.4262 12.0767C21.539 12.127 21.6414 12.2007 21.7277 12.2937C21.8141 12.3866 21.8825 12.4969 21.9292 12.6183C21.976 12.7398 22 12.8699 22 13.0013C22 13.1328 21.976 13.2629 21.9292 13.3843C21.8825 13.5058 21.8141 13.6161 21.7277 13.709L16.1575 19.7063C16.0713 19.7994 15.9688 19.8733 15.8561 19.9237C15.7433 19.9741 15.6224 20 15.5002 20C15.3781 20 15.2572 19.9741 15.1444 19.9237C15.0316 19.8733 14.9292 19.7994 14.843 19.7063L9.27274 13.709C9.18629 13.6162 9.11769 13.5059 9.07089 13.3844C9.02409 13.263 9 13.1328 9 13.0013C9 12.8699 9.02409 12.7397 9.07089 12.6182C9.11769 12.4968 9.18629 12.3865 9.27274 12.2937Z" fill="black"/>
</svg>
