<svg width="30" height="30" viewBox="0 0 30 30" fill="none" xmlns="http://www.w3.org/2000/svg">
<circle cx="15" cy="15" r="15" transform="rotate(-180 15 15)" fill="#03DAC5"/>
<path fill-rule="evenodd" clip-rule="evenodd" d="M20.7273 17.7063C20.641 17.7994 20.5386 17.8733 20.4258 17.9237C20.313 17.9741 20.1921 18 20.07 18C19.9479 18 19.8269 17.9741 19.7142 17.9237C19.6014 17.8733 19.4989 17.7994 19.4127 17.7063L14.4998 12.4147L9.58683 17.7063C9.50051 17.7993 9.39804 17.873 9.28526 17.9233C9.17248 17.9736 9.05161 17.9995 8.92954 17.9995C8.80747 17.9995 8.6866 17.9736 8.57382 17.9233C8.46104 17.873 8.35857 17.7993 8.27226 17.7063C8.18594 17.6134 8.11747 17.5031 8.07076 17.3817C8.02404 17.2602 8 17.1301 8 16.9987C8 16.8672 8.02404 16.7371 8.07076 16.6157C8.11747 16.4942 8.18594 16.3839 8.27226 16.291L13.8425 10.2937C13.9287 10.2006 14.0312 10.1267 14.1439 10.0763C14.2567 10.0259 14.3776 10 14.4998 10C14.6219 10 14.7428 10.0259 14.8556 10.0763C14.9684 10.1267 15.0708 10.2006 15.157 10.2937L20.7273 16.291C20.8137 16.3838 20.8823 16.4941 20.9291 16.6156C20.9759 16.737 21 16.8672 21 16.9987C21 17.1301 20.9759 17.2603 20.9291 17.3818C20.8823 17.5032 20.8137 17.6135 20.7273 17.7063Z" fill="black"/>
</svg>
