<svg width="8" height="15" viewBox="0 0 8 15" fill="none" xmlns="http://www.w3.org/2000/svg">
<path d="M0.00270286 7.48824C0.00218169 7.23833 0.0951335 6.99614 0.265424 6.80372L5.97676 0.38638C6.17064 0.167958 6.44926 0.0306013 6.7513 0.00452577C7.05335 -0.0215497 7.35408 0.0657923 7.58735 0.247337C7.82062 0.428882 7.96732 0.689759 7.99517 0.972578C8.02301 1.2554 7.92974 1.53699 7.73585 1.75541L2.61849 7.48824L7.55308 13.2211C7.64797 13.3305 7.71882 13.4563 7.76158 13.5915C7.80434 13.7266 7.81815 13.8683 7.80223 14.0084C7.78631 14.1486 7.74096 14.2844 7.6688 14.4081C7.59664 14.5318 7.49909 14.6409 7.38175 14.7291C7.2643 14.8271 7.12651 14.9013 6.97702 14.947C6.82752 14.9928 6.66955 15.0092 6.51298 14.9951C6.35642 14.9811 6.20465 14.9369 6.06717 14.8653C5.92969 14.7938 5.80947 14.6965 5.71404 14.5794L0.196888 8.16206C0.0535156 7.9641 -0.0148548 7.72685 0.00270286 7.48824Z" fill="white"/>
</svg>
