<?xml version='1.0' encoding='iso-8859-1'?>
<!DOCTYPE svg PUBLIC '-//W3C//DTD SVG 1.1//EN' 'http://www.w3.org/Graphics/SVG/1.1/DTD/svg11.dtd'>
<svg version="1.1" xmlns="http://www.w3.org/2000/svg" viewBox="0 0 438.558 438.558" xmlns:xlink="http://www.w3.org/1999/xlink" enable-background="new 0 0 438.558 438.558">
  <g>
    <path d="m131.906,157.032c-17.161,0-31.123,13.961-31.123,31.123 0,17.161 13.962,31.122 31.123,31.122s31.122-13.961 31.122-31.122c-2.84217e-14-17.161-13.961-31.123-31.122-31.123zm0,42.245c-6.133,0-11.123-4.99-11.123-11.122 0-6.133 4.99-11.123 11.123-11.123s11.122,4.99 11.122,11.123c-2.84217e-14,6.133-4.989,11.122-11.122,11.122z"/>
    <path d="m275.533,188.155c0-17.161-13.962-31.123-31.123-31.123s-31.122,13.961-31.122,31.123c0,17.161 13.961,31.122 31.122,31.122s31.123-13.961 31.123-31.122zm-31.123,11.122c-6.133,0-11.122-4.99-11.122-11.122 0-6.133 4.989-11.123 11.122-11.123s11.123,4.99 11.123,11.123c-2.84217e-14,6.133-4.99,11.122-11.123,11.122z"/>
    <path d="m373.069,222.99c2.14-11.453 3.241-23.133 3.241-34.837 0-103.746-84.404-188.15-188.15-188.15-103.752-1.43245e-14-188.16,84.404-188.16,188.15 0,103.752 84.408,188.16 188.16,188.16 11.708,0 23.387-1.101 34.835-3.242 17.989,38.634 57.179,65.483 102.53,65.483 62.326,0 113.032-50.706 113.032-113.032 0.001-45.352-26.851-84.544-65.488-102.532zm-184.909,133.323c-92.723,0-168.16-75.436-168.16-168.16 0-92.718 75.437-168.15 168.16-168.15 92.719,0 168.15,75.432 168.15,168.15 0,9.385-0.79,18.75-2.329,27.966-6.102-1.588-12.405-2.673-18.858-3.219 1.363-8.157 2.067-16.438 2.067-24.748 0-82.175-66.854-149.03-149.03-149.03-82.175,0-149.029,66.855-149.029,149.03s66.854,149.03 149.029,149.03c8.324,0 16.604-0.702 24.744-2.063 0.545,6.456 1.631,12.76 3.22,18.864-9.211,1.541-18.576,2.33-27.964,2.33zm24.845-41.528c-8.136,1.586-16.462,2.398-24.845,2.398-71.147,0-129.029-57.883-129.029-129.03s57.882-129.03 129.029-129.03 129.03,57.883 129.03,129.03c0,8.362-0.813,16.69-2.401,24.849-53.774,5.091-96.693,48.009-101.784,101.783zm112.52,103.769c-51.299,0-93.033-41.734-93.033-93.032s41.734-93.033 93.033-93.033c51.298,0 93.032,41.734 93.032,93.033s-41.734,93.032-93.032,93.032z"/>
    <path d="m325.525,245.171c-44.306,0-80.352,36.045-80.352,80.351 0,44.306 36.046,80.351 80.352,80.351s80.351-36.045 80.351-80.351c0-44.306-36.045-80.351-80.351-80.351zm0,140.702c-33.278,0-60.352-27.073-60.352-60.351 0-33.278 27.073-60.351 60.352-60.351 33.277,0 60.351,27.073 60.351,60.351 0,33.278-27.073,60.351-60.351,60.351z"/>
    <path d="m188.158,163.025c17.161,0 31.122-13.961 31.122-31.122 0-17.161-13.961-31.123-31.122-31.123s-31.122,13.961-31.122,31.123c5.68434e-14,17.161 13.961,31.122 31.122,31.122zm0-42.245c6.133,0 11.122,4.99 11.122,11.123 0,6.133-4.989,11.122-11.122,11.122s-11.122-4.99-11.122-11.122c5.68434e-14-6.133 4.989-11.123 11.122-11.123z"/>
    <path d="m188.158,213.285c-17.161,0-31.122,13.961-31.122,31.123 0,17.161 13.961,31.122 31.122,31.122s31.122-13.961 31.122-31.122c-2.84217e-14-17.162-13.961-31.123-31.122-31.123zm0,42.245c-6.133,0-11.122-4.99-11.122-11.122 0-6.133 4.989-11.123 11.122-11.123s11.122,4.99 11.122,11.123c-2.84217e-14,6.132-4.989,11.122-11.122,11.122z"/>
    <path d="m301.612,315.518c-2.63,0-5.21,1.07-7.07,2.93s-2.93,4.44-2.93,7.07c0,2.64 1.069,5.21 2.93,7.08 1.86,1.86 4.43,2.92 7.07,2.92 2.63,0 5.21-1.06 7.069-2.92 1.86-1.87 2.931-4.44 2.931-7.08 0-2.63-1.07-5.21-2.931-7.07-1.868-1.86-4.439-2.93-7.069-2.93z"/>
    <path d="m349.442,315.528c-2.63,0-5.21,1.06-7.07,2.92s-2.93,4.44-2.93,7.07c0,2.64 1.069,5.21 2.93,7.08 1.86,1.86 4.44,2.92 7.07,2.92s5.21-1.06 7.069-2.92c1.86-1.87 2.931-4.44 2.931-7.08 0-2.63-1.07-5.21-2.931-7.07-1.869-1.86-4.439-2.92-7.069-2.92z"/>
  </g>
</svg>
