<svg width="24" height="24" viewBox="0 0 24 24" fill="none" xmlns="http://www.w3.org/2000/svg">
<circle cx="11.8824" cy="11.8824" r="9.88235" fill="white"/>
<path d="M12 24C9.82812 24 7.82031 23.4648 5.97656 22.3945C4.13281 21.3242 2.67578 19.8672 1.60547 18.0234C0.535156 16.1797 0 14.1719 0 12C0 9.82812 0.535156 7.82031 1.60547 5.97656C2.67578 4.13281 4.13281 2.67578 5.97656 1.60547C7.82031 0.535156 9.82812 0 12 0C14.1719 0 16.1797 0.535156 18.0234 1.60547C19.8672 2.67578 21.3242 4.13281 22.3945 5.97656C23.4648 7.82031 24 9.82812 24 12C24 14.1719 23.4648 16.1797 22.3945 18.0234C21.3242 19.8672 19.8672 21.3242 18.0234 22.3945C16.1797 23.4648 14.1719 24 12 24ZM19.2891 7.99219L18.2578 6.96094C18.1016 6.82031 17.9258 6.75 17.7305 6.75C17.5352 6.75 17.3594 6.82031 17.2031 6.96094L10.125 14.0391L6.77344 10.7109C6.63281 10.5703 6.46094 10.5 6.25781 10.5C6.05469 10.5 5.88281 10.5703 5.74219 10.7109L4.71094 11.7422C4.57031 11.8828 4.5 12.0547 4.5 12.2578C4.5 12.4609 4.57031 12.6406 4.71094 12.7969L8.27344 16.3359C8.47266 16.5469 8.5625 16.6367 8.67188 16.7461L9.60938 17.707C9.78125 17.8789 9.86719 17.9766 10.125 17.9766C10.3359 17.9766 10.4922 17.8789 10.6641 17.707L11.6602 16.6875C11.7539 16.5781 11.7891 16.5352 11.9766 16.3359L19.2891 9.02344C19.4297 8.88281 19.5 8.71094 19.5 8.50781C19.5 8.30469 19.4297 8.13281 19.2891 7.99219Z" fill="#01CDBE"/>
</svg>
