<svg width="36" height="36" viewBox="0 0 36 36" fill="none" xmlns="http://www.w3.org/2000/svg">
  <path d="M30.1401 3C30.1401 2.73478 30.0348 2.48043 29.8472 2.29289C29.6597 2.10536 29.4054 2 29.1401 2H7.14014C6.87492 2 6.62057 2.10536 6.43303 2.29289C6.24549 2.48043 6.14014 2.73478 6.14014 3V4H30.1401V3Z" fill="white"/>
  <path d="M32.1201 7C32.1201 6.73478 32.0148 6.48043 31.8272 6.29289C31.6397 6.10536 31.3853 6 31.1201 6H5.12012C4.8549 6 4.60055 6.10536 4.41301 6.29289C4.22547 6.48043 4.12012 6.73478 4.12012 7V8H32.1201V7Z" fill="white"/>
  <path d="M32.12 10H3.88C3.38139 10 2.90321 10.1981 2.55064 10.5506C2.19807 10.9032 2 11.3814 2 11.88V30.12C2 30.6186 2.19807 31.0968 2.55064 31.4494C2.90321 31.8019 3.38139 32 3.88 32H32.12C32.6186 32 33.0968 31.8019 33.4494 31.4494C33.8019 31.0968 34 30.6186 34 30.12V11.88C34 11.3814 33.8019 10.9032 33.4494 10.5506C33.0968 10.1981 32.6186 10 32.12 10ZM8.56 13.45C9.15334 13.45 9.73336 13.6259 10.2267 13.9556C10.7201 14.2852 11.1046 14.7538 11.3316 15.3019C11.5587 15.8501 11.6181 16.4533 11.5024 17.0353C11.3866 17.6172 11.1009 18.1518 10.6813 18.5713C10.2618 18.9909 9.72721 19.2766 9.14527 19.3924C8.56333 19.5081 7.96013 19.4487 7.41195 19.2216C6.86377 18.9946 6.39524 18.6101 6.06559 18.1167C5.73595 17.6234 5.56 17.0433 5.56 16.45C5.56 15.6544 5.87607 14.8913 6.43868 14.3287C7.00129 13.7661 7.76435 13.45 8.56 13.45ZM30 28H6L13.46 20.53C13.593 20.3981 13.7727 20.3241 13.96 20.3241C14.1473 20.3241 14.327 20.3981 14.46 20.53L18.14 24.21L23.21 19C23.343 18.8681 23.5227 18.7941 23.71 18.7941C23.8973 18.7941 24.077 18.8681 24.21 19L30 24.79V28Z" fill="white"/>
</svg>
