<svg width="29" height="29" viewBox="0 0 29 29" fill="none" xmlns="http://www.w3.org/2000/svg">
  <circle cx="14.5" cy="14.5" r="14" stroke="#7A7A7A"/>
  <path fill-rule="evenodd" clip-rule="evenodd" d="M18.4517 19.7H13.0556C12.5693 19.7 12.103 19.4946 11.7592 19.1289C11.4154 18.7632 11.2222 18.2672 11.2222 17.75V10.7105C10.8647 10.8451 10.5551 11.0942 10.3363 11.4236C10.1174 11.7531 9.99989 12.1466 10 12.55V19.05C10 19.5672 10.1932 20.0632 10.537 20.4289C10.8808 20.7946 11.3471 21 11.8333 21H16.7222C17.1015 21.0001 17.4715 20.8752 17.7812 20.6423C18.0909 20.4095 18.3252 20.0803 18.4517 19.7ZM12.4444 9.95V17.75C12.4444 17.9224 12.5088 18.0877 12.6234 18.2096C12.738 18.3315 12.8935 18.4 13.0556 18.4H19.1667C19.6529 18.4 20.1192 18.1946 20.463 17.8289C20.8068 17.4632 21 16.9672 21 16.45V12.4382C20.9997 11.9213 20.8065 11.4257 20.4628 11.0602L18.1235 8.5707C17.7797 8.20522 17.3134 7.99994 16.8273 8H14.2778C13.7915 8 13.3252 8.20545 12.9814 8.57114C12.6376 8.93684 12.4444 9.43283 12.4444 9.95Z" fill="#7A7A7A"/>
</svg>
