<svg width="11" height="14" viewBox="0 0 11 14" fill="none" xmlns="http://www.w3.org/2000/svg">
<path fill-rule="evenodd" clip-rule="evenodd" d="M8.45167 12.2H3.05556C2.56933 12.2 2.10301 11.9946 1.75919 11.6289C1.41538 11.2632 1.22222 10.7672 1.22222 10.25V3.2105C0.864677 3.34506 0.555146 3.59421 0.336258 3.92365C0.117369 4.25308 -0.000109345 4.6466 7.63679e-08 5.05V11.55C7.63679e-08 12.0672 0.193154 12.5632 0.536971 12.9289C0.880788 13.2946 1.3471 13.5 1.83333 13.5H6.72222C7.10149 13.5001 7.47146 13.3752 7.78119 13.1423C8.09091 12.9095 8.32516 12.5803 8.45167 12.2ZM2.44444 2.45V10.25C2.44444 10.4224 2.50883 10.5877 2.62343 10.7096C2.73804 10.8315 2.89348 10.9 3.05556 10.9H9.16667C9.6529 10.9 10.1192 10.6946 10.463 10.3289C10.8068 9.96316 11 9.46717 11 8.95V4.9382C10.9997 4.4213 10.8065 3.92565 10.4628 3.5602L8.1235 1.0707C7.77966 0.705217 7.31344 0.499938 6.82733 0.5H4.27778C3.79155 0.5 3.32523 0.705446 2.98142 1.07114C2.6376 1.43684 2.44444 1.93283 2.44444 2.45Z" fill="white"/>
</svg>
