<?xml
version="1.0" encoding="utf-8"?>
<!-- Generator: Adobe Illustrator 25.1.0, SVG Export Plug-In . SVG Version: 6.00 Build 0)  -->
<svg version="1.1" id="Capa_1" xmlns="http://www.w3.org/2000/svg" xmlns:xlink="http://www.w3.org/1999/xlink" x="0px" y="0px" viewBox="0 0 503 503" style="enable-background:new 0 0 503 503;" xml:space="preserve">
  <style type="text/css">
    .st0 {
      fill: #FFFFFF;
    }
  </style>
  <g>
    <g>
      <path class="st0" d="M491.6,75.6l-64.2-64.2c-15.2-15.2-39.9-15.2-55.1,0L251.5,132.2L130.7,11.4c-15.2-15.2-39.9-15.2-55.1,0
      			L11.4,75.6c-15.2,15.2-15.2,39.9,0,55.1l120.8,120.8L11.4,372.3c-15.2,15.2-15.2,39.9,0,55.1l64.2,64.2
      			c15.2,15.2,39.9,15.2,55.1,0l120.8-120.8l120.8,120.8c15.2,15.2,39.9,15.2,55.1,0l64.2-64.2c15.2-15.2,15.2-39.9,0-55.1
      			L370.8,251.5l120.8-120.8C506.8,115.5,506.8,90.8,491.6,75.6z"/>
    </g>
  </g>
</svg>
