<svg width="17" height="17" viewBox="0 0 17 17" fill="none" xmlns="http://www.w3.org/2000/svg">
  <path d="M2.23456 0.354418L8.37856 6.48575L14.5226 0.372998C14.6435 0.250166 14.7887 0.153719 14.949 0.0897572C15.1092 0.025795 15.281 -0.00429091 15.4535 0.00140183C15.7919 0.0232598 16.1108 0.167303 16.3507 0.406635C16.5905 0.645968 16.7348 0.964228 16.7567 1.30199C16.7584 1.46806 16.7263 1.63274 16.6623 1.78604C16.5983 1.93935 16.5037 2.07808 16.3844 2.19382L10.2218 8.36231L16.3844 14.5308C16.6264 14.7649 16.7605 15.0882 16.7567 15.4226C16.7348 15.7604 16.5905 16.0787 16.3507 16.318C16.1108 16.5573 15.7919 16.7014 15.4535 16.7232C15.281 16.7289 15.1092 16.6988 14.949 16.6349C14.7887 16.5709 14.6435 16.4745 14.5226 16.3516L8.37856 10.2389L2.25318 16.3516C2.13221 16.4745 1.98702 16.5709 1.82678 16.6349C1.66655 16.6988 1.49476 16.7289 1.32227 16.7232C0.9775 16.7053 0.651599 16.5606 0.407479 16.317C0.163358 16.0734 0.0183271 15.7481 0.000381073 15.4041C-0.0013035 15.238 0.0308331 15.0733 0.0948413 14.92C0.15885 14.7667 0.253396 14.628 0.372745 14.5122L6.53536 8.36231L0.354127 2.19382C0.238138 2.07651 0.147033 1.93708 0.0862538 1.78385C0.0254747 1.63062 -0.00373118 1.46674 0.000381073 1.30199C0.0222842 0.964228 0.166625 0.645968 0.406452 0.406635C0.646279 0.167303 0.965196 0.0232598 1.30365 0.00140183C1.4748 -0.00671005 1.64578 0.0204485 1.80594 0.0811844C1.9661 0.14192 2.11201 0.234931 2.23456 0.354418Z" fill="#bb86fc"/>
</svg>
