<svg width="20" height="20" viewBox="0 0 20 20" fill="none" xmlns="http://www.w3.org/2000/svg">
<path d="M17.8474 14.3803V5.61974C18.3361 5.49589 18.7833 5.24475 19.1435 4.89189C19.5036 4.53902 19.7639 4.09703 19.8977 3.6109C20.0315 3.12478 20.0341 2.61188 19.9053 2.12441C19.7764 1.63695 19.5207 1.19232 19.1642 0.835796C18.8077 0.47927 18.3631 0.223573 17.8756 0.0947345C17.3881 -0.034104 16.8752 -0.0314841 16.3891 0.102328C15.903 0.236139 15.461 0.496364 15.1081 0.856515C14.7552 1.21666 14.5041 1.66388 14.3803 2.15264H5.61974C5.49589 1.66388 5.24475 1.21666 4.89189 0.856515C4.53902 0.496364 4.09703 0.236139 3.6109 0.102328C3.12478 -0.0314841 2.61188 -0.034104 2.12441 0.0947345C1.63695 0.223573 1.19232 0.47927 0.835796 0.835796C0.47927 1.19232 0.223573 1.63695 0.0947345 2.12441C-0.034104 2.61188 -0.0314841 3.12478 0.102328 3.6109C0.236139 4.09703 0.496364 4.53902 0.856515 4.89189C1.21666 5.24475 1.66388 5.49589 2.15264 5.61974V14.3803C1.66388 14.5041 1.21666 14.7552 0.856515 15.1081C0.496364 15.461 0.236139 15.903 0.102328 16.3891C-0.0314841 16.8752 -0.034104 17.3881 0.0947345 17.8756C0.223573 18.3631 0.47927 18.8077 0.835796 19.1642C1.19232 19.5207 1.63695 19.7764 2.12441 19.9053C2.61188 20.0341 3.12478 20.0315 3.6109 19.8977C4.09703 19.7639 4.53902 19.5036 4.89189 19.1435C5.24475 18.7833 5.49589 18.3361 5.61974 17.8474H14.3803C14.5041 18.3361 14.7552 18.7833 15.1081 19.1435C15.461 19.5036 15.903 19.7639 16.3891 19.8977C16.8752 20.0315 17.3881 20.0341 17.8756 19.9053C18.3631 19.7764 18.8077 19.5207 19.1642 19.1642C19.5207 18.8077 19.7764 18.3631 19.9053 17.8756C20.0341 17.3881 20.0315 16.8752 19.8977 16.3891C19.7639 15.903 19.5036 15.461 19.1435 15.1081C18.7833 14.7552 18.3361 14.5041 17.8474 14.3803ZM17.134 1.43924C17.4162 1.43924 17.692 1.52292 17.9267 1.6797C18.1613 1.83648 18.3442 2.05931 18.4522 2.32002C18.5601 2.58073 18.5884 2.86762 18.5333 3.14439C18.4783 3.42116 18.3424 3.67539 18.1429 3.87493C17.9433 4.07447 17.6891 4.21036 17.4123 4.26541C17.1355 4.32046 16.8487 4.29221 16.588 4.18422C16.3272 4.07623 16.1044 3.89335 15.9476 3.65872C15.7909 3.42408 15.7072 3.14823 15.7072 2.86603C15.7072 2.48762 15.8575 2.12471 16.1251 1.85714C16.3926 1.58956 16.7556 1.43924 17.134 1.43924ZM1.43924 2.86603C1.43924 2.58384 1.52292 2.30798 1.6797 2.07335C1.83648 1.83871 2.05931 1.65584 2.32002 1.54785C2.58073 1.43986 2.86762 1.4116 3.14439 1.46665C3.42116 1.52171 3.67539 1.6576 3.87493 1.85714C4.07447 2.05668 4.21036 2.31091 4.26541 2.58768C4.32046 2.86445 4.29221 3.15133 4.18422 3.41204C4.07623 3.67276 3.89335 3.89559 3.65872 4.05237C3.42408 4.20915 3.14823 4.29283 2.86603 4.29283C2.48762 4.29283 2.12471 4.1425 1.85714 3.87493C1.58956 3.60735 1.43924 3.24444 1.43924 2.86603ZM2.86603 18.5608C2.58384 18.5608 2.30798 18.4771 2.07335 18.3203C1.83871 18.1635 1.65584 17.9407 1.54785 17.68C1.43986 17.4193 1.4116 17.1324 1.46665 16.8556C1.52171 16.5788 1.6576 16.3246 1.85714 16.1251C2.05668 15.9255 2.31091 15.7896 2.58768 15.7346C2.86445 15.6795 3.15133 15.7078 3.41204 15.8158C3.67276 15.9238 3.89559 16.1066 4.05237 16.3413C4.20915 16.5759 4.29283 16.8518 4.29283 17.134C4.29283 17.5124 4.1425 17.8753 3.87493 18.1429C3.60735 18.4104 3.24444 18.5608 2.86603 18.5608ZM14.3803 16.4206H5.61974C5.49165 15.9299 5.23509 15.4821 4.87647 15.1235C4.51786 14.7649 4.07014 14.5084 3.57943 14.3803V5.61974C4.07014 5.49165 4.51786 5.23509 4.87647 4.87647C5.23509 4.51786 5.49165 4.07014 5.61974 3.57943H14.3803C14.5084 4.07014 14.7649 4.51786 15.1235 4.87647C15.4821 5.23509 15.9299 5.49165 16.4206 5.61974V14.3803C15.9299 14.5084 15.4821 14.7649 15.1235 15.1235C14.7649 15.4821 14.5084 15.9299 14.3803 16.4206ZM17.134 18.5608C16.8518 18.5608 16.5759 18.4771 16.3413 18.3203C16.1066 18.1635 15.9238 17.9407 15.8158 17.68C15.7078 17.4193 15.6795 17.1324 15.7346 16.8556C15.7896 16.5788 15.9255 16.3246 16.1251 16.1251C16.3246 15.9255 16.5788 15.7896 16.8556 15.7346C17.1324 15.6795 17.4193 15.7078 17.68 15.8158C17.9407 15.9238 18.1635 16.1066 18.3203 16.3413C18.4771 16.5759 18.5608 16.8518 18.5608 17.134C18.5608 17.5124 18.4104 17.8753 18.1429 18.1429C17.8753 18.4104 17.5124 18.5608 17.134 18.5608Z" fill="white"/>
<path d="M14 6H6V7.45455H9.2V14H10.8V7.45455H14V6Z" fill="white"/>
</svg>
