<svg width="24" height="24" viewBox="0 0 24 24" fill="none" xmlns="http://www.w3.org/2000/svg">
<circle cx="11.8824" cy="11.8824" r="9.88235" fill="white"/>
<path fill-rule="evenodd" clip-rule="evenodd" d="M12 24C18.6274 24 24 18.6274 24 12C24 5.37258 18.6274 0 12 0C5.37258 0 0 5.37258 0 12C0 18.6274 5.37258 24 12 24ZM18.0513 5.094C18.3856 5.2323 18.6895 5.43515 18.9453 5.69094C19.4614 6.2064 19.7516 6.90556 19.7522 7.63479C19.7528 8.36402 19.4637 9.06365 18.9485 9.57994L18.123 10.4071L14.2301 6.51598L15.0492 5.69409C15.3047 5.43789 15.6082 5.23455 15.9423 5.09571C16.2765 4.95686 16.6347 4.88525 16.9966 4.88496C17.3585 4.88466 17.7169 4.9557 18.0513 5.094ZM7.22262 13.5286L13.5145 7.22124L17.4159 11.1192L11.1272 17.4213C10.9613 17.5875 10.7604 17.7147 10.539 17.7934L6.36301 19.2819C6.22224 19.3319 6.07017 19.3409 5.92448 19.3079C5.77878 19.275 5.64545 19.2013 5.53999 19.0956C5.43452 18.9899 5.36125 18.8565 5.3287 18.7108C5.29615 18.5652 5.30564 18.4133 5.35609 18.2728L6.85542 14.1068C6.93426 13.8894 7.05998 13.692 7.22367 13.5286H7.22262ZM13.5929 5.73451H5.83679C5.69701 5.73451 5.56295 5.79045 5.46411 5.89003C5.36526 5.98961 5.30973 6.12466 5.30973 6.26549C5.30973 6.40631 5.36526 6.54136 5.46411 6.64094C5.56295 6.74052 5.69701 6.79646 5.83679 6.79646H12.5409L13.5929 5.73451ZM5.83491 7.85841H11.469L10.4218 8.92035H5.83491C5.69563 8.92035 5.56205 8.86441 5.46356 8.76484C5.36507 8.66526 5.30973 8.5302 5.30973 8.38938C5.30973 8.24856 5.36507 8.1135 5.46356 8.01393C5.56205 7.91435 5.69563 7.85841 5.83491 7.85841ZM9.34513 9.9823H5.8311C5.69283 9.9823 5.56022 10.0271 5.46244 10.1067C5.36466 10.1864 5.30973 10.2944 5.30973 10.4071C5.30973 10.5197 5.36466 10.6278 5.46244 10.7074C5.56022 10.7871 5.69283 10.8319 5.8311 10.8319H8.30552L9.34513 9.9823Z" fill="#ACACAC"/>
</svg>
