<svg width="31" height="31" viewBox="0 0 31 31" fill="none" xmlns="http://www.w3.org/2000/svg">
<circle cx="15.5" cy="15.5" r="15" fill="#03DAC5" stroke="#03DAC5"/>
<path d="M15.3841 14.1053L17.5455 16.2674V16.1579C17.5455 15.6135 17.33 15.0914 16.9464 14.7065C16.5628 14.3215 16.0425 14.1053 15.5 14.1053H15.3841ZM12.4523 14.6526L13.5091 15.7132C13.475 15.8568 13.4545 16.0005 13.4545 16.1579C13.4545 16.7023 13.67 17.2244 14.0536 17.6093C14.4372 17.9943 14.9575 18.2105 15.5 18.2105C15.65 18.2105 15.8 18.19 15.9432 18.1558L17 19.2163C16.5432 19.4421 16.0386 19.5789 15.5 19.5789C14.5959 19.5789 13.7287 19.2185 13.0894 18.5769C12.4501 17.9354 12.0909 17.0652 12.0909 16.1579C12.0909 15.6174 12.2273 15.1111 12.4523 14.6526V14.6526ZM8.68182 10.8689L10.2364 12.4289L10.5432 12.7368C9.41818 13.6263 8.53182 14.7895 8 16.1579C9.17955 19.1616 12.0909 21.2895 15.5 21.2895C16.5568 21.2895 17.5659 21.0842 18.4864 20.7147L18.7795 21.0021L20.7705 23L21.6364 22.1311L9.54773 10L8.68182 10.8689ZM15.5 12.7368C16.4041 12.7368 17.2713 13.0973 17.9106 13.7388C18.5499 14.3804 18.9091 15.2506 18.9091 16.1579C18.9091 16.5958 18.8205 17.02 18.6636 17.4032L20.6614 19.4079C21.6841 18.5526 22.5023 17.4305 23 16.1579C21.8205 13.1542 18.9091 11.0263 15.5 11.0263C14.5455 11.0263 13.6318 11.1974 12.7727 11.5053L14.2523 12.9763C14.6409 12.8258 15.0568 12.7368 15.5 12.7368Z" fill="black"/>
</svg>
