<svg width="32" height="21" viewBox="0 0 32 21" fill="none" xmlns="http://www.w3.org/2000/svg">
<path d="M16 6.3C14.8427 6.3 13.7328 6.7425 12.9144 7.53015C12.0961 8.3178 11.6364 9.38609 11.6364 10.5C11.6364 11.6139 12.0961 12.6822 12.9144 13.4698C13.7328 14.2575 14.8427 14.7 16 14.7C17.1573 14.7 18.2672 14.2575 19.0856 13.4698C19.9039 12.6822 20.3636 11.6139 20.3636 10.5C20.3636 9.38609 19.9039 8.3178 19.0856 7.53015C18.2672 6.7425 17.1573 6.3 16 6.3ZM16 17.5C14.0712 17.5 12.2213 16.7625 10.8574 15.4497C9.4935 14.137 8.72727 12.3565 8.72727 10.5C8.72727 8.64348 9.4935 6.86301 10.8574 5.55025C12.2213 4.2375 14.0712 3.5 16 3.5C17.9288 3.5 19.7787 4.2375 21.1426 5.55025C22.5065 6.86301 23.2727 8.64348 23.2727 10.5C23.2727 12.3565 22.5065 14.137 21.1426 15.4497C19.7787 16.7625 17.9288 17.5 16 17.5ZM16 0C8.72727 0 2.51636 4.354 0 10.5C2.51636 16.646 8.72727 21 16 21C23.2727 21 29.4836 16.646 32 10.5C29.4836 4.354 23.2727 0 16 0Z" fill="white"/>
</svg>
