<svg width="32" height="28" viewBox="0 0 32 28" fill="none" xmlns="http://www.w3.org/2000/svg">
<path d="M15.7527 8.8421L20.3636 13.4989V13.2632C20.3636 12.0906 19.9039 10.9661 19.0856 10.137C18.2672 9.30789 17.1573 8.8421 16 8.8421H15.7527ZM9.49818 10.0211L11.7527 12.3053C11.68 12.6147 11.6364 12.9242 11.6364 13.2632C11.6364 14.4357 12.0961 15.5602 12.9144 16.3893C13.7328 17.2184 14.8427 17.6842 16 17.6842C16.32 17.6842 16.64 17.64 16.9455 17.5663L19.2 19.8505C18.2255 20.3368 17.1491 20.6316 16 20.6316C14.0712 20.6316 12.2213 19.8553 10.8574 18.4734C9.4935 17.0916 8.72727 15.2174 8.72727 13.2632C8.72727 12.0989 9.01818 11.0084 9.49818 10.0211ZM1.45455 1.87158L4.77091 5.23158L5.42545 5.89474C3.02545 7.81053 1.13455 10.3158 0 13.2632C2.51636 19.7326 8.72727 24.3158 16 24.3158C18.2545 24.3158 20.4073 23.8737 22.3709 23.0779L22.9964 23.6968L27.2436 28L29.0909 26.1284L3.30182 0L1.45455 1.87158ZM16 5.89474C17.9288 5.89474 19.7787 6.67105 21.1426 8.0529C22.5065 9.43474 23.2727 11.3089 23.2727 13.2632C23.2727 14.2063 23.0836 15.12 22.7491 15.9453L27.0109 20.2632C29.1927 18.4211 30.9382 16.0042 32 13.2632C29.4836 6.79368 23.2727 2.21053 16 2.21053C13.9636 2.21053 12.0145 2.57895 10.1818 3.24211L13.3382 6.41053C14.1673 6.08632 15.0545 5.89474 16 5.89474Z" fill="white"/>
</svg>
