<svg width="31" height="31" viewBox="0 0 31 31" fill="none" xmlns="http://www.w3.org/2000/svg">
<circle cx="15.5" cy="15.5" r="15" stroke="#03DAC5"/>
<path d="M13.5045 15.5C13.5045 16.0011 13.7075 16.4818 14.0688 16.8361C14.4301 17.1905 14.9202 17.3896 15.4312 17.3896C15.9422 17.3896 16.4322 17.1905 16.7936 16.8361C17.1549 16.4818 17.3579 16.0011 17.3579 15.5C17.3579 14.9989 17.1549 14.5182 16.7936 14.1639C16.4322 13.8095 15.9422 13.6104 15.4312 13.6104C14.9202 13.6104 14.4301 13.8095 14.0688 14.1639C13.7075 14.5182 13.5045 14.9989 13.5045 15.5V15.5ZM22.9007 15.0647C21.2698 11.6956 18.8047 10 15.5 10C12.1936 10 9.73017 11.6956 8.09934 15.0664C8.03393 15.2023 8 15.3506 8 15.5008C8 15.6511 8.03393 15.7994 8.09934 15.9353C9.73017 19.3044 12.1953 21 15.5 21C18.8064 21 21.2698 19.3044 22.9007 15.9336C23.0331 15.6603 23.0331 15.3431 22.9007 15.0647V15.0647ZM15.4312 18.4693C13.7591 18.4693 12.4035 17.1399 12.4035 15.5C12.4035 13.8601 13.7591 12.5307 15.4312 12.5307C17.1033 12.5307 18.4589 13.8601 18.4589 15.5C18.4589 17.1399 17.1033 18.4693 15.4312 18.4693Z" fill="#03DAC5"/>
</svg>
