<svg width="29" height="29" viewBox="0 0 29 29" fill="none" xmlns="http://www.w3.org/2000/svg">
  <circle cx="14.5" cy="14.5" r="14" stroke="#03DAC5"/>
  <path d="M12.5045 14.5C12.5045 15.0011 12.7075 15.4818 13.0688 15.8361C13.4301 16.1905 13.9202 16.3896 14.4312 16.3896C14.9422 16.3896 15.4323 16.1905 15.7936 15.8361C16.1549 15.4818 16.3579 15.0011 16.3579 14.5C16.3579 13.9989 16.1549 13.5182 15.7936 13.1639C15.4323 12.8095 14.9422 12.6104 14.4312 12.6104C13.9202 12.6104 13.4301 12.8095 13.0688 13.1639C12.7075 13.5182 12.5045 13.9989 12.5045 14.5ZM21.9007 14.0647C20.2698 10.6956 17.8047 9 14.5 9C11.1936 9 8.73017 10.6956 7.09934 14.0664C7.03393 14.2023 7 14.3506 7 14.5008C7 14.6511 7.03393 14.7994 7.09934 14.9353C8.73017 18.3044 11.1953 20 14.5 20C17.8064 20 20.2698 18.3044 21.9007 14.9336C22.0331 14.6603 22.0331 14.3431 21.9007 14.0647ZM14.4312 17.4693C12.7591 17.4693 11.4035 16.1399 11.4035 14.5C11.4035 12.8601 12.7591 11.5307 14.4312 11.5307C16.1033 11.5307 17.4589 12.8601 17.4589 14.5C17.4589 16.1399 16.1033 17.4693 14.4312 17.4693Z" fill="#03DAC5"/>
</svg>
