<svg width="31" height="31" viewBox="0 0 31 31" fill="none" xmlns="http://www.w3.org/2000/svg">
<path d="M2.71877 25.3719H16.7813C17.3751 25.3721 17.9467 25.5976 18.3806 26.003C18.8145 26.4084 19.0784 26.9634 19.1188 27.5559C19.1593 28.1483 18.9734 28.734 18.5987 29.1947C18.2239 29.6553 17.6883 29.9566 17.1 30.0375L16.7813 30.0594H2.71877C2.12494 30.0592 1.55333 29.8336 1.11942 29.4282C0.68551 29.0228 0.421662 28.4678 0.381187 27.8754C0.340712 27.2829 0.526628 26.6972 0.901369 26.2366C1.27611 25.7759 1.81174 25.4747 2.40002 25.3937L2.71877 25.3719H16.7813H2.71877ZM7.31252 7.30937C7.70975 6.91291 8.23606 6.67215 8.79576 6.63086C9.35547 6.58957 9.91141 6.75049 10.3625 7.08437L10.625 7.3125L21.5625 18.25C21.978 18.6688 22.2203 19.2288 22.2411 19.8183C22.2618 20.4078 22.0595 20.9835 21.6745 21.4305C21.2895 21.8774 20.7501 22.1627 20.164 22.2295C19.5779 22.2962 18.9882 22.1395 18.5125 21.7906L18.25 21.5625L7.31252 10.625C6.87361 10.1855 6.62708 9.58985 6.62708 8.96875C6.62708 8.34765 6.87361 7.75195 7.31252 7.3125V7.30937ZM27.7188 0.375C28.2851 0.375024 28.8323 0.580133 29.2592 0.952397C29.686 1.32466 29.9636 1.83889 30.0406 2.4L30.0625 2.71875V16.7812C30.0623 17.3751 29.8368 17.9467 29.4314 18.3806C29.026 18.8145 28.471 19.0784 27.8785 19.1188C27.2861 19.1593 26.7004 18.9734 26.2397 18.5986C25.7791 18.2239 25.4778 17.6883 25.3969 17.1L25.375 16.7812V2.71875C25.375 2.09715 25.6219 1.50101 26.0615 1.06147C26.501 0.62193 27.0972 0.375 27.7188 0.375Z" fill="black"/>
</svg>
