<svg width="20" height="18" viewBox="0 0 20 18" fill="none" xmlns="http://www.w3.org/2000/svg">
<path d="M19.5861 8.85253L10.499 0.197127C10.4336 0.134638 10.3559 0.085062 10.2703 0.0512365C10.1847 0.017411 10.093 0 10.0004 0C9.90779 0 9.81608 0.017411 9.73053 0.0512365C9.64497 0.085062 9.56726 0.134638 9.50183 0.197127L0.414753 8.85253C0.150017 9.10487 0 9.44764 0 9.80513C0 10.5474 0.633161 11.151 1.41193 11.151H2.36939V17.3271C2.36939 17.6993 2.68487 18 3.07535 18H8.58849V13.2896H11.0594V18H16.9255C17.316 18 17.6314 17.6993 17.6314 17.3271V11.151H18.5889C18.9639 11.151 19.3235 11.0101 19.5883 10.7556C20.1376 10.2299 20.1376 9.37824 19.5861 8.85253Z" fill="white"/>
</svg>
