<svg width="20" height="15" viewBox="0 0 20 15" fill="none" xmlns="http://www.w3.org/2000/svg">
  <path fill-rule="evenodd" clip-rule="evenodd" d="M18.125 1.25H1.875C1.70924 1.25 1.55027 1.31585 1.43306 1.43306C1.31585 1.55027 1.25 1.70924 1.25 1.875V13.125C1.25 13.2908 1.31585 13.4497 1.43306 13.5669C1.55027 13.6842 1.70924 13.75 1.875 13.75H18.125C18.2908 13.75 18.4497 13.6842 18.5669 13.5669C18.6842 13.4497 18.75 13.2908 18.75 13.125V1.875C18.75 1.70924 18.6842 1.55027 18.5669 1.43306C18.4497 1.31585 18.2908 1.25 18.125 1.25ZM1.875 0C1.37772 0 0.900805 0.197544 0.549175 0.549175C0.197544 0.900806 0 1.37772 0 1.875L0 13.125C0 13.6223 0.197544 14.0992 0.549175 14.4508C0.900805 14.8025 1.37772 15 1.875 15H18.125C18.6223 15 19.0992 14.8025 19.4508 14.4508C19.8025 14.0992 20 13.6223 20 13.125V1.875C20 1.37772 19.8025 0.900806 19.4508 0.549175C19.0992 0.197544 18.6223 0 18.125 0H1.875Z" fill="white"/>
  <path d="M13.3104 7.05744C13.4033 6.96487 13.5229 6.90383 13.6523 6.88296C13.7817 6.8621 13.9145 6.88247 14.0317 6.94119L18.7529 9.37494V13.7499H1.25293V12.4999L4.56043 9.55744C4.6626 9.45565 4.79682 9.39232 4.94035 9.37819C5.08388 9.36407 5.22788 9.40002 5.34793 9.47994L8.67293 11.6962L13.3104 7.05869V7.05744Z" fill="white"/>
  <path fill-rule="evenodd" clip-rule="evenodd" d="M5.62793 6.25C5.87416 6.25 6.11798 6.2015 6.34546 6.10727C6.57295 6.01305 6.77964 5.87494 6.95375 5.70083C7.12786 5.52672 7.26598 5.32002 7.3602 5.09253C7.45443 4.86505 7.50293 4.62123 7.50293 4.375C7.50293 4.12877 7.45443 3.88495 7.3602 3.65747C7.26598 3.42998 7.12786 3.22328 6.95375 3.04917C6.77964 2.87506 6.57295 2.73695 6.34546 2.64273C6.11798 2.5485 5.87416 2.5 5.62793 2.5C5.13065 2.5 4.65373 2.69754 4.3021 3.04917C3.95047 3.40081 3.75293 3.87772 3.75293 4.375C3.75293 4.87228 3.95047 5.34919 4.3021 5.70083C4.65373 6.05246 5.13065 6.25 5.62793 6.25V6.25Z" fill="white"/>
</svg>
