<svg width="113" height="113" viewBox="0 0 113 113" fill="none" xmlns="http://www.w3.org/2000/svg">
<circle cx="56.5" cy="56.5" r="56.5" fill="#ACACAC"/>
<path d="M71.25 76.3335V83.2085C71.25 85.0319 70.5257 86.7806 69.2364 88.0699C67.947 89.3592 66.1984 90.0835 64.375 90.0835H36.875C35.0516 90.0835 33.303 89.3592 32.0136 88.0699C30.7243 86.7806 30 85.0319 30 83.2085V45.396C30 43.5726 30.7243 41.824 32.0136 40.5346C33.303 39.2453 35.0516 38.521 36.875 38.521H43.75M71.25 48.8335H62.6562V32.9123M43.75 38.521V28.2085C43.75 26.3851 44.4743 24.6364 45.7636 23.3471C47.053 22.0578 48.8016 21.3335 50.625 21.3335H66.7297C68.526 21.3337 70.2509 22.037 71.5353 23.2929L82.9306 34.4372C83.5856 35.0775 84.106 35.8421 84.4614 36.6862C84.8168 37.5304 84.9999 38.437 85 39.3529V69.4585C85 71.2819 84.2757 73.0306 82.9864 74.3199C81.697 75.6092 79.9484 76.3335 78.125 76.3335H50.625C48.8016 76.3335 45.7636 74.3199 45.7636 74.3199C44.4743 73.0306 43.75 71.2819 43.75 69.4585V38.521Z" stroke="white" stroke-width="5" stroke-linecap="round" stroke-linejoin="round"/>
</svg>
