<svg width="20" height="21" viewBox="0 0 20 21" fill="none" xmlns="http://www.w3.org/2000/svg">
<path d="M15.8065 2.22085C18.3468 4.06814 20 7.08948 20 10.509C20 16.1248 15.5323 20.6773 10.0202 20.6896C4.51613 20.7019 0.00807187 16.133 7.35953e-06 10.5254C-0.0040249 7.1059 1.6492 4.07635 4.18549 2.22496C4.65726 1.88423 5.31452 2.02791 5.59678 2.54105L6.23388 3.69458C6.47178 4.12561 6.35888 4.67159 5.96775 4.96715C4.29436 6.23152 3.22581 8.2348 3.22581 10.5049C3.22178 14.2939 6.22984 17.4056 10 17.4056C13.6936 17.4056 16.7984 14.3596 16.7742 10.4639C16.7621 8.33743 15.7782 6.28489 14.0282 4.96305C13.6371 4.66748 13.5282 4.12151 13.7661 3.69458L14.4032 2.54105C14.6855 2.03202 15.3387 1.88013 15.8065 2.22085ZM11.6129 10.8374V0.985221C11.6129 0.439244 11.1815 0 10.6452 0H9.35484C8.81855 0 8.3871 0.439244 8.3871 0.985221V10.8374C8.3871 11.3834 8.81855 11.8226 9.35484 11.8226H10.6452C11.1815 11.8226 11.6129 11.3834 11.6129 10.8374Z" fill="black"/>
</svg>
