<svg width="31" height="32" viewBox="0 0 31 32" fill="none" xmlns="http://www.w3.org/2000/svg">
  <path d="M11.775 0C10.5259 0 9.32786 0.477854 8.44456 1.32844C7.56126 2.17902 7.06503 3.33266 7.06503 4.53557V9.53831C7.83482 9.32845 8.62322 9.18799 9.42004 9.11877V4.53784C9.42004 3.93639 9.66815 3.35957 10.1098 2.93427C10.5515 2.50898 11.1505 2.27005 11.775 2.27005H18.8401V7.93952C18.8401 8.8417 19.2122 9.70693 19.8747 10.3449C20.5372 10.9828 21.4357 11.3412 22.3726 11.3412H28.2601V27.2089C28.2601 27.8104 28.012 28.3872 27.5703 28.8125C27.1287 29.2378 26.5297 29.4767 25.9051 29.4767H20.5922C19.8551 30.3384 19.0026 31.1004 18.0535 31.7445H25.9051C27.1543 31.7445 28.3523 31.2666 29.2356 30.416C30.1189 29.5655 30.6151 28.4118 30.6151 27.2089V10.0191C30.615 9.57213 30.5235 9.12958 30.3457 8.71673C30.1679 8.30387 29.9073 7.9288 29.5789 7.61296L22.707 0.995558C22.0448 0.358269 21.1469 0.000192493 20.2107 0H11.775ZM21.1951 7.93952V2.74629L27.7656 9.07115H22.3726C22.0603 9.07115 21.7608 8.95168 21.54 8.73904C21.3191 8.52639 21.1951 8.23798 21.1951 7.93725V7.93952ZM21.1951 21.5417C21.1951 18.8352 20.0786 16.2395 18.0911 14.3257C16.1037 12.4118 13.4082 11.3367 10.5975 11.3367C7.7869 11.3367 5.09137 12.4118 3.10395 14.3257C1.11652 16.2395 0 18.8352 0 21.5417C0 24.2482 1.11652 26.8439 3.10395 28.7578C5.09137 30.6716 7.7869 31.7467 10.5975 31.7467C13.4082 31.7467 16.1037 30.6716 18.0911 28.7578C20.0786 26.8439 21.1951 24.2482 21.1951 21.5417V21.5417ZM10.5975 25.8074C10.9879 25.8074 11.3623 25.9567 11.6383 26.2225C11.9144 26.4884 12.0694 26.8489 12.0694 27.2248C12.0694 27.6007 11.9144 27.9612 11.6383 28.227C11.3623 28.4928 10.9879 28.6421 10.5975 28.6421C10.2072 28.6421 9.8328 28.4928 9.55677 28.227C9.28073 27.9612 9.12566 27.6007 9.12566 27.2248C9.12566 26.8489 9.28073 26.4884 9.55677 26.2225C9.8328 25.9567 10.2072 25.8074 10.5975 25.8074V25.8074ZM10.5975 14.7451C13.0256 14.7451 14.9614 16.6637 14.9614 19.1673C14.9614 20.4963 14.4574 21.2265 13.2493 22.1585L12.5969 22.6438C12.0176 23.0861 11.8221 23.3242 11.7821 23.6621L11.7562 24.0159C11.7038 24.2947 11.5449 24.5445 11.3107 24.7161C11.0766 24.8877 10.7842 24.9687 10.4911 24.9431C10.1981 24.9175 9.92563 24.7872 9.72739 24.5778C9.52914 24.3684 9.4195 24.0951 9.42004 23.8118C9.42004 22.5169 9.91459 21.807 11.1062 20.8886L11.7609 20.401C12.4392 19.8817 12.6087 19.6254 12.6087 19.1673C12.6087 17.9019 11.7091 17.0129 10.5975 17.0129C9.43417 17.0129 8.57459 17.8429 8.58872 19.156C8.59026 19.3049 8.56134 19.4526 8.50359 19.5908C8.44585 19.7289 8.36041 19.8548 8.25216 19.9611C8.14391 20.0674 8.01497 20.1522 7.87271 20.2106C7.73044 20.2689 7.57762 20.2997 7.42299 20.3012C7.26836 20.3027 7.11493 20.2749 6.97148 20.2193C6.82803 20.1636 6.69735 20.0814 6.58692 19.9771C6.47648 19.8729 6.38845 19.7487 6.32785 19.6117C6.26724 19.4747 6.23526 19.3276 6.23371 19.1787C6.2078 16.6002 8.12949 14.7451 10.5975 14.7451V14.7451Z" fill="#292929"/>
</svg>
