<svg width="50" height="50" viewBox="0 0 50 50" fill="none" xmlns="http://www.w3.org/2000/svg">
<path d="M25 46.875C19.1984 46.875 13.6344 44.5703 9.53204 40.468C5.42968 36.3656 3.125 30.8016 3.125 25C3.125 19.1984 5.42968 13.6344 9.53204 9.53204C13.6344 5.42968 19.1984 3.125 25 3.125C30.8016 3.125 36.3656 5.42968 40.468 9.53204C44.5703 13.6344 46.875 19.1984 46.875 25C46.875 30.8016 44.5703 36.3656 40.468 40.468C36.3656 44.5703 30.8016 46.875 25 46.875ZM25 50C31.6304 50 37.9893 47.3661 42.6777 42.6777C47.3661 37.9893 50 31.6304 50 25C50 18.3696 47.3661 12.0107 42.6777 7.32233C37.9893 2.63392 31.6304 0 25 0C18.3696 0 12.0107 2.63392 7.32233 7.32233C2.63392 12.0107 0 18.3696 0 25C0 31.6304 2.63392 37.9893 7.32233 42.6777C12.0107 47.3661 18.3696 50 25 50Z" fill="#292929"/>
<path d="M35.3593 31.2947C35.656 31.2248 35.9666 31.2433 36.2529 31.3477C36.5392 31.4521 36.7887 31.638 36.9707 31.8824C37.1527 32.1269 37.2592 32.4192 37.2772 32.7234C37.2952 33.0277 37.2238 33.3305 37.0718 33.5947C35.8378 35.7333 34.0623 37.5091 31.9239 38.7434C29.7855 39.9778 27.3597 40.627 24.8906 40.6259C22.4215 40.627 19.9957 39.9778 17.8573 38.7434C15.7189 37.5091 13.9433 35.7333 12.7093 33.5947C12.5574 33.3305 12.486 33.0277 12.504 32.7234C12.5219 32.4192 12.6285 32.1269 12.8105 31.8824C12.9925 31.638 13.242 31.4521 13.5283 31.3477C13.8146 31.2433 14.1252 31.2248 14.4218 31.2947H14.4375L14.4906 31.3103L14.7 31.3572L15.4875 31.529C16.1593 31.6728 17.0968 31.8665 18.1656 32.0572C20.3312 32.4447 22.9218 32.8134 24.8906 32.8134C26.8593 32.8134 29.4531 32.4447 31.6156 32.0572C32.7756 31.8484 33.9311 31.6151 35.0812 31.3572L35.2906 31.3103L35.3437 31.2978L35.3593 31.2915V31.2947ZM14.8625 14.2697C17.2468 9.81967 27.425 13.8947 17.8375 25.0009C3.78747 20.0134 10.4937 11.5697 14.8625 14.2697ZM35.1375 14.2697C39.5062 11.5697 46.2125 20.0134 32.1625 25.0009C22.5781 13.8947 32.7562 9.81967 35.1375 14.2697Z" fill="#292929"/>
</svg>
