<svg width="24" height="24" viewBox="0 0 24 24" fill="none" xmlns="http://www.w3.org/2000/svg">
<circle cx="12" cy="12" r="12" fill="#F79D00"/>
<path fill-rule="evenodd" clip-rule="evenodd" d="M16.1737 6.81443C16.2449 6.89034 16.3 6.97922 16.3356 7.07594C16.3713 7.17265 16.387 7.27528 16.3816 7.3779C16.3763 7.48051 16.3501 7.58108 16.3045 7.6738C16.259 7.76652 16.195 7.84954 16.1163 7.91808C16.0375 7.98662 15.9456 8.0393 15.8458 8.0731C15.746 8.1069 15.6403 8.12114 15.5348 8.115C15.4293 8.10886 15.3261 8.08245 15.2312 8.03732C15.1362 7.99218 15.0514 7.9292 14.9817 7.85201C14.4416 7.26491 13.7309 6.85107 12.9437 6.66526C12.1564 6.47945 11.3297 6.53042 10.5728 6.81144C9.81602 7.09245 9.16481 7.59026 8.70537 8.23898C8.24593 8.88771 7.99993 9.65677 7.99992 10.4444H9.59995C9.75815 10.4444 9.91279 10.4901 10.0443 10.5755C10.1759 10.661 10.2784 10.7825 10.3389 10.9246C10.3994 11.0667 10.4153 11.223 10.3844 11.3739C10.3536 11.5248 10.2774 11.6633 10.1656 11.7721L7.76551 14.1055C7.61548 14.2513 7.41203 14.3332 7.1999 14.3332C6.98776 14.3332 6.78431 14.2513 6.63429 14.1055L4.23423 11.7721C4.12238 11.6633 4.04622 11.5248 4.01536 11.3739C3.98451 11.223 4.00035 11.0667 4.06089 10.9246C4.12143 10.7825 4.22394 10.661 4.35547 10.5755C4.487 10.4901 4.64164 10.4444 4.79985 10.4444H6.39988C6.39992 9.34181 6.74428 8.2652 7.38741 7.35704C8.03054 6.44887 8.94213 5.75195 10.0016 5.35848C11.061 4.96501 12.2183 4.89353 13.3205 5.15352C14.4226 5.4135 15.4175 5.99268 16.1737 6.81443ZM19.7658 12.2279C19.8776 12.3367 19.9538 12.4752 19.9846 12.6261C20.0155 12.777 19.9996 12.9333 19.9391 13.0754C19.8786 13.2175 19.7761 13.339 19.6445 13.4245C19.513 13.5099 19.3584 13.5556 19.2002 13.5556H17.6001V13.5571C17.5998 14.6596 17.2552 15.736 16.6119 16.6439C15.9687 17.5518 15.0571 18.2485 13.9977 18.6418C12.9383 19.0351 11.7811 19.1064 10.6792 18.8464C9.57719 18.5864 8.58238 18.0072 7.82631 17.1856C7.75509 17.1097 7.70004 17.0208 7.66436 16.9241C7.62867 16.8274 7.61304 16.7247 7.61838 16.6221C7.62372 16.5195 7.64992 16.4189 7.69547 16.3262C7.74101 16.2335 7.805 16.1505 7.88374 16.0819C7.96248 16.0134 8.0544 15.9607 8.15421 15.9269C8.25401 15.8931 8.35971 15.8789 8.46521 15.885C8.5707 15.8911 8.6739 15.9175 8.76884 15.9627C8.86378 16.0078 8.94858 16.0708 9.01834 16.148C9.55839 16.7351 10.2691 17.1489 11.0563 17.3347C11.8436 17.5206 12.6703 17.4696 13.4272 17.1886C14.184 16.9075 14.8352 16.4097 15.2946 15.761C15.7541 15.1123 16.0001 14.3432 16.0001 13.5556H14.4001C14.2418 13.5556 14.0872 13.5099 13.9557 13.4245C13.8241 13.339 13.7216 13.2175 13.6611 13.0754C13.6006 12.9333 13.5847 12.777 13.6156 12.6261C13.6464 12.4752 13.7226 12.3367 13.8344 12.2279L16.2345 9.89451C16.3845 9.74869 16.588 9.66678 16.8001 9.66678C17.0122 9.66678 17.2157 9.74869 17.3657 9.89451L19.7658 12.2279Z" fill="white"/>
</svg>
