<svg width="16" height="18" viewBox="0 0 16 18" fill="none" xmlns="http://www.w3.org/2000/svg">
<path fill-rule="evenodd" clip-rule="evenodd" d="M0.5 2.75C0.5 2.08696 0.763392 1.45107 1.23223 0.982233C1.70107 0.513392 2.33696 0.25 3 0.25H9.61625C9.94774 0.250071 10.2656 0.381813 10.5 0.61625L15.1337 5.25C15.3682 5.48437 15.4999 5.80226 15.5 6.13375V15.25C15.5 15.913 15.2366 16.5489 14.7678 17.0178C14.2989 17.4866 13.663 17.75 13 17.75H3C2.33696 17.75 1.70107 17.4866 1.23223 17.0178C0.763392 16.5489 0.5 15.913 0.5 15.25V2.75ZM9.25 5.25V1.5L14.25 6.5H10.5C10.1685 6.5 9.85054 6.3683 9.61612 6.13388C9.3817 5.89946 9.25 5.58152 9.25 5.25ZM6.3075 8.5575C6.36561 8.49939 6.4346 8.45329 6.51052 8.42185C6.58644 8.3904 6.66782 8.37421 6.75 8.37421C6.83218 8.37421 6.91356 8.3904 6.98948 8.42185C7.0654 8.45329 7.13439 8.49939 7.1925 8.5575C7.25061 8.61561 7.29671 8.6846 7.32815 8.76052C7.3596 8.83644 7.37579 8.91782 7.37579 9C7.37579 9.08218 7.3596 9.16356 7.32815 9.23948C7.29671 9.3154 7.25061 9.38439 7.1925 9.4425L5.13375 11.5L7.1925 13.5575C7.30986 13.6749 7.37579 13.834 7.37579 14C7.37579 14.166 7.30986 14.3251 7.1925 14.4425C7.07514 14.5599 6.91597 14.6258 6.75 14.6258C6.58403 14.6258 6.42486 14.5599 6.3075 14.4425L3.8075 11.9425C3.7493 11.8844 3.70312 11.8155 3.67161 11.7395C3.6401 11.6636 3.62388 11.5822 3.62388 11.5C3.62388 11.4178 3.6401 11.3364 3.67161 11.2605C3.70312 11.1845 3.7493 11.1156 3.8075 11.0575L6.3075 8.5575ZM12.1925 11.0575L9.6925 8.5575C9.63439 8.49939 9.5654 8.45329 9.48948 8.42185C9.41356 8.3904 9.33218 8.37421 9.25 8.37421C9.16782 8.37421 9.08644 8.3904 9.01052 8.42185C8.9346 8.45329 8.86561 8.49939 8.8075 8.5575C8.74939 8.61561 8.70329 8.6846 8.67185 8.76052C8.6404 8.83644 8.62421 8.91782 8.62421 9C8.62421 9.08218 8.6404 9.16356 8.67185 9.23948C8.70329 9.3154 8.74939 9.38439 8.8075 9.4425L10.8663 11.5L8.8075 13.5575C8.69014 13.6749 8.62421 13.834 8.62421 14C8.62421 14.166 8.69014 14.3251 8.8075 14.4425C8.92486 14.5599 9.08403 14.6258 9.25 14.6258C9.41597 14.6258 9.57514 14.5599 9.6925 14.4425L12.1925 11.9425C12.2507 11.8844 12.2969 11.8155 12.3284 11.7395C12.3599 11.6636 12.3761 11.5822 12.3761 11.5C12.3761 11.4178 12.3599 11.3364 12.3284 11.2605C12.2969 11.1845 12.2507 11.1156 12.1925 11.0575Z" fill="white"/>
</svg>
