<svg width="20" height="19" viewBox="0 0 20 19" fill="none" xmlns="http://www.w3.org/2000/svg">
<path d="M8.15504 18.8438C10.0283 18.1047 9.6179 16.0669 8.67072 14.7788C7.73407 13.459 6.43959 12.551 5.1346 11.6747C4.20347 11.0859 3.3721 10.3516 2.67194 9.49967C2.37726 9.15125 1.77738 8.50719 2.38779 8.38049C3.00871 8.25379 4.08218 8.86617 4.62944 9.09846C5.58714 9.49967 6.53431 9.96424 7.41834 10.5133L8.48129 8.71836C6.83951 7.63085 4.73468 6.67005 2.77718 6.38497C1.66162 6.21604 0.482909 6.44832 0.104038 7.66253C-0.232735 8.7078 0.303998 9.76363 0.9144 10.5872C2.35621 12.5193 4.59786 13.4485 6.27121 15.1167C6.62903 15.4651 7.06052 15.8769 7.271 16.3626C7.49201 16.8271 7.43939 16.8588 6.94476 16.8588C5.63976 16.8588 4.00851 15.8347 2.94557 15.1589L1.88262 16.9538C3.49282 17.9463 6.18701 19.4984 8.15504 18.8438ZM19.8264 2.37282C20.0579 2.14053 20.0579 1.76044 19.8264 1.53871L18.4582 0.166132C18.348 0.0595511 18.2009 0 18.0478 0C17.8947 0 17.7475 0.0595511 17.6373 0.166132L16.5639 1.24308L18.7529 3.43921L19.8264 2.37282ZM9.47056 8.35937V10.5555H11.6596L18.132 4.06215L15.9429 1.86602L9.47056 8.35937Z" fill="white"/>
</svg>
