<?xml version="1.0" ?><!DOCTYPE svg  PUBLIC '-//W3C//DTD SVG 1.1//EN'  'http://www.w3.org/Graphics/SVG/1.1/DTD/svg11.dtd'><svg enable-background="new 0 0 512 512" height="512px" id="Layer_1" version="1.1" viewBox="0 0 512 512" width="512px" xml:space="preserve" xmlns="http://www.w3.org/2000/svg" xmlns:xlink="http://www.w3.org/1999/xlink"><g><path d="M266.963,295.046c-2.56,0-5.118-0.977-7.071-2.929l-40.009-40.01c-3.905-3.905-3.905-10.237,0-14.143l18.082-18.082   c1.875-1.875,4.419-2.929,7.071-2.929s5.196,1.054,7.071,2.929l40.01,40.01c1.875,1.876,2.929,4.419,2.929,7.071   s-1.054,5.196-2.929,7.071l-18.083,18.082C272.082,294.069,269.522,295.046,266.963,295.046z M241.096,245.036l25.867,25.868   l3.94-3.94l-25.868-25.867L241.096,245.036z"/></g><g><g><path d="M282.555,445.387h-200c-12.131,0-22-9.869-22-22v-314c0-12.131,9.869-22,22-22h41c5.523,0,10,4.478,10,10v9.69    c0,0.313,0.701,1.08,2,1.08h94c1.299,0,2-0.767,2-1.08v-9.69c0-5.522,4.477-10,10-10h41c12.131,0,22,9.869,22,22v147.101    c0,2.652-1.054,5.195-2.929,7.071l-53.279,53.278l25.869,25.877l13.267-13.269c2.86-2.859,7.16-3.714,10.898-2.168    c3.737,1.548,6.173,5.194,6.173,9.239v86.87C304.555,435.518,294.686,445.387,282.555,445.387z M82.555,107.387    c-1.103,0-2,0.897-2,2v314c0,1.103,0.897,2,2,2h200c1.103,0,2-0.897,2-2v-62.728l-3.269,3.27    c-1.875,1.875-4.419,2.929-7.071,2.929c0,0,0,0-0.001,0c-2.652,0-5.196-1.055-7.072-2.931l-40.008-40.019    c-3.905-3.905-3.905-10.237,0-14.143l57.421-57.421V109.387c0-1.103-0.897-2-2-2h-31.002    c-0.174,11.481-9.975,20.771-21.998,20.771h-94c-12.023,0-21.824-9.289-21.998-20.771H82.555z"/></g><g><path d="M229.557,128.152h-94c-12.131,0-22-9.456-22-21.08V87.693c0-11.624,9.869-21.08,22-21.08h94c12.131,0,22,9.456,22,21.08    v19.379C251.557,118.696,241.688,128.152,229.557,128.152z M135.557,86.613c-1.299,0-2,0.767-2,1.08v19.379    c0,0.313,0.701,1.08,2,1.08h94c1.299,0,2-0.767,2-1.08V87.693c0-0.313-0.701-1.08-2-1.08H135.557z"/></g><g><path d="M282.463,167.383H84.28c-12.158,0-22.05-9.869-22.05-22v-35.5c0-12.131,9.892-22,22.05-22h38.527c5.523,0,10,4.478,10,10    v9.189c0,0.313,0.718,1.08,2.05,1.08h94.388c1.332,0,2.05-0.767,2.05-1.08v-9.189c0-5.522,4.477-10,10-10h41.168    c12.158,0,22.05,9.869,22.05,22v35.5C304.513,157.514,294.621,167.383,282.463,167.383z M84.28,107.883c-1.13,0-2.05,0.897-2.05,2    v35.5c0,1.103,0.919,2,2.05,2h198.183c1.13,0,2.05-0.897,2.05-2v-35.5c0-1.103-0.919-2-2.05-2h-31.184    c-0.448,11.249-10.16,20.27-22.034,20.27h-94.388c-11.874,0-21.586-9.021-22.034-20.27H84.28z"/></g><g><path d="M115.756,241.298c-2.56,0-5.118-0.977-7.071-2.929l-15.187-15.187c-3.905-3.905-3.905-10.237,0-14.143    c3.905-3.904,10.237-3.904,14.143,0l8.115,8.116l32.661-32.66c3.905-3.904,10.237-3.903,14.142,0    c3.905,3.905,3.905,10.237,0,14.143l-39.731,39.73C120.875,240.321,118.315,241.298,115.756,241.298z"/></g><g><path d="M113.27,328.77L113.27,328.77c-2.652,0-5.196-1.054-7.071-2.929l-15.186-15.187c-3.905-3.906-3.905-10.237,0-14.143    c3.906-3.904,10.237-3.903,14.142,0l8.115,8.115l32.66-32.659c3.905-3.904,10.237-3.903,14.142,0    c3.905,3.905,3.905,10.237,0,14.143l-39.731,39.73C118.465,327.716,115.921,328.77,113.27,328.77z"/></g><g><path d="M274.215,366.857C274.214,366.857,274.214,366.857,274.215,366.857c-2.653,0-5.197-1.055-7.073-2.931l-40.008-40.019    c-3.905-3.905-3.905-10.237,0-14.143l167.219-167.22c3.905-3.904,10.237-3.904,14.142,0l40.021,40.02    c1.875,1.876,2.929,4.419,2.929,7.071s-1.054,5.196-2.929,7.071l-167.23,167.221C279.411,365.804,276.867,366.857,274.215,366.857    z M248.347,316.837l25.869,25.877l153.086-153.077l-25.878-25.878L248.347,316.837z"/></g><g><path d="M218.056,382.997c-2.616,0-5.171-1.027-7.073-2.93c-2.572-2.573-3.544-6.34-2.538-9.835l16.147-56.152    c0.977-3.404,3.68-6.038,7.109-6.925c3.43-0.887,7.071,0.105,9.575,2.61l40.011,40.022c2.502,2.504,3.495,6.144,2.609,9.571    s-3.518,6.132-6.92,7.109l-56.16,16.14C219.906,382.87,218.977,382.997,218.056,382.997z M239.132,335.906l-6.47,22.487    l22.489-6.463L239.132,335.906z"/></g><g><path d="M269.027,221.433h-85.655c-5.523,0-10-4.478-10-10s4.477-10,10-10h85.655c5.523,0,10,4.478,10,10    S274.55,221.433,269.027,221.433z"/></g><g><path d="M246.045,314.997h-62.67c-5.523,0-10-4.478-10-10s4.477-10,10-10h62.67c5.523,0,10,4.478,10,10    S251.568,314.997,246.045,314.997z"/></g><g><path d="M120.527,382.998h-19.958c-5.523,0-10-4.478-10-10s4.477-10,10-10h19.958c5.523,0,10,4.478,10,10    S126.05,382.998,120.527,382.998z"/></g><g><path d="M218.055,382.997h-44.149c-5.523,0-10-4.478-10-10s4.477-10,10-10h44.149c5.523,0,10,4.478,10,10    S223.578,382.997,218.055,382.997z"/></g></g></svg>