<svg width="31" height="27" viewBox="0 0 31 27" fill="none" xmlns="http://www.w3.org/2000/svg">
<path d="M20.7005 20.649C20.7005 20.8903 20.5997 21.1217 20.4203 21.2924C20.2409 21.463 19.9977 21.5589 19.744 21.5589H6.35378C6.14336 21.5589 5.94251 21.7409 5.77035 21.8592L2.528 24.2887V9.72979C2.528 9.48846 2.62877 9.25702 2.80814 9.08637C2.98751 8.91573 3.23078 8.81986 3.48445 8.81986H7.17632V7H3.48445C2.72345 7 1.99363 7.2876 1.45552 7.79954C0.917416 8.31147 0.615112 9.00581 0.615112 9.72979V26.1085C0.616536 26.2775 0.667398 26.4428 0.762 26.5858C0.856601 26.7289 0.991203 26.844 1.15072 26.9184C1.3044 26.9849 1.47384 27.0115 1.64183 26.9955C1.80982 26.9795 1.97037 26.9215 2.10717 26.8274L7.03286 23.3787H19.8875C20.25 23.3889 20.6108 23.3282 20.9476 23.2003C21.2845 23.0725 21.5901 22.8802 21.8457 22.6354C22.1012 22.3905 22.3012 22.0984 22.4332 21.7771C22.5653 21.4557 22.6266 21.112 22.6133 20.7672V19.739H20.7005V20.649Z" fill="black"/>
<path d="M27.9557 0H12.3662C11.6366 0 10.9368 0.288571 10.4209 0.802231C9.90496 1.31589 9.61511 2.01256 9.61511 2.73899V13.6949C9.61511 14.4214 9.90496 15.118 10.4209 15.6317C10.9368 16.1454 11.6366 16.4339 12.3662 16.4339H24.792L29.1754 19.8211C29.3057 19.9171 29.4592 19.9769 29.6203 19.9945C29.7814 20.0122 29.9443 19.987 30.0924 19.9216C30.2485 19.8476 30.3803 19.7312 30.4728 19.5858C30.5653 19.4404 30.6146 19.272 30.6151 19.0999V2.73899C30.6155 2.02811 30.3383 1.34492 29.842 0.833809C29.3458 0.322695 28.6693 0.0236959 27.9557 0ZM28.8728 17.2921L25.6631 14.7997C25.5031 14.676 25.3064 14.6086 25.1038 14.6079H12.3662C12.123 14.6079 11.8897 14.5117 11.7178 14.3405C11.5458 14.1693 11.4492 13.9371 11.4492 13.6949V2.73899C11.4492 2.49685 11.5458 2.26462 11.7178 2.0934C11.8897 1.92218 12.123 1.82599 12.3662 1.82599H27.9557C28.2009 1.84814 28.4294 1.95876 28.5983 2.13701C28.7672 2.31526 28.8648 2.54884 28.8728 2.79377V17.2921Z" fill="black"/>
</svg>
