<svg xmlns="http://www.w3.org/2000/svg" viewBox="0 0 48 48">
  <title>indend-align-text-glyph</title>
  <g id="indend-align-text"><path d="M32.25,5H46v5.43H32.25Zm0,16.29H46V15.86H32.25Zm0,10.86H46V26.71H32.25ZM2,43H46V37.57H2ZM19.88,31.93a.73.73,0,0,1-.51.21H7.79a.73.73,0,0,1-.51-.21.71.71,0,0,1-.21-.51V28.57a.71.71,0,0,1,.21-.51.73.73,0,0,1,.51-.21h3.62V10a.72.72,0,0,0-.72-.71H7.84a2.9,2.9,0,0,0-2,.84L3.24,12.65a.73.73,0,0,1-.79.15A.71.71,0,0,1,2,12.14V5.71a.71.71,0,0,1,.21-.51A.73.73,0,0,1,2.72,5H24.43a.72.72,0,0,1,.72.71v6.43a.71.71,0,0,1-.45.66.73.73,0,0,1-.79-.15l-2.56-2.53a2.9,2.9,0,0,0-2-.84H16.47a.72.72,0,0,0-.72.71V27.86h3.62a.72.72,0,0,1,.72.71v2.86A.71.71,0,0,1,19.88,31.93Z" fill="white"/></g>
</svg>
