<svg width="15" height="16" viewBox="0 0 15 16" fill="none" xmlns="http://www.w3.org/2000/svg">
  <path d="M15 3.5122C15 3.70336 14.929 3.88787 14.8005 4.03073C14.672 4.17359 14.4949 4.26485 14.3029 4.28722L14.2105 4.29268H13.5434L12.5716 14.0644C12.5187 14.5946 12.2682 15.0864 11.8688 15.4442C11.4694 15.8019 10.9497 16.0001 10.4108 16H4.58921C4.05028 16.0001 3.53058 15.8019 3.13121 15.4442C2.73184 15.0864 2.48133 14.5946 2.42842 14.0644L1.45658 4.29268H0.789474C0.580092 4.29268 0.379286 4.21045 0.231231 4.06408C0.0831764 3.91771 0 3.71919 0 3.5122C0 3.3052 0.0831764 3.10668 0.231231 2.96031C0.379286 2.81394 0.580092 2.73171 0.789474 2.73171H4.73684C4.73684 2.37297 4.80831 2.01775 4.94718 1.68633C5.08604 1.3549 5.28957 1.05376 5.54615 0.800099C5.80274 0.546436 6.10734 0.34522 6.44259 0.207939C6.77783 0.0706577 7.13714 0 7.5 0C7.86286 0 8.22217 0.0706577 8.55742 0.207939C8.89266 0.34522 9.19726 0.546436 9.45385 0.800099C9.71043 1.05376 9.91396 1.3549 10.0528 1.68633C10.1917 2.01775 10.2632 2.37297 10.2632 2.73171H14.2105C14.4199 2.73171 14.6207 2.81394 14.7688 2.96031C14.9168 3.10668 15 3.3052 15 3.5122ZM9.27632 6.04878C9.13323 6.04879 8.99499 6.10001 8.88716 6.19299C8.77933 6.28596 8.7092 6.4144 8.68974 6.55454L8.68421 6.63415V12.0976L8.68974 12.1772C8.70924 12.3173 8.77938 12.4457 8.88721 12.5386C8.99504 12.6315 9.13326 12.6827 9.27632 12.6827C9.41937 12.6827 9.55759 12.6315 9.66542 12.5386C9.77325 12.4457 9.8434 12.3173 9.8629 12.1772L9.86842 12.0976V6.63415L9.8629 6.55454C9.84344 6.4144 9.7733 6.28596 9.66547 6.19299C9.55764 6.10001 9.4194 6.04879 9.27632 6.04878ZM5.72368 6.04878C5.5806 6.04879 5.44236 6.10001 5.33453 6.19299C5.2267 6.28596 5.15656 6.4144 5.13711 6.55454L5.13158 6.63415V12.0976L5.13711 12.1772C5.1566 12.3173 5.22675 12.4457 5.33458 12.5386C5.44241 12.6315 5.58063 12.6827 5.72368 12.6827C5.86674 12.6827 6.00496 12.6315 6.11279 12.5386C6.22062 12.4457 6.29076 12.3173 6.31026 12.1772L6.31579 12.0976V6.63415L6.31026 6.55454C6.2908 6.4144 6.22067 6.28596 6.11284 6.19299C6.00501 6.10001 5.86677 6.04879 5.72368 6.04878ZM7.5 1.56098C7.18593 1.56098 6.88472 1.68432 6.66264 1.90388C6.44055 2.12343 6.31579 2.42121 6.31579 2.73171H8.68421C8.68421 2.42121 8.55945 2.12343 8.33736 1.90388C8.11528 1.68432 7.81407 1.56098 7.5 1.56098Z" fill="#BB86FC"/>
</svg>
