<svg width="31" height="31" viewBox="0 0 31 31" fill="none" xmlns="http://www.w3.org/2000/svg">
  <path fill-rule="evenodd" clip-rule="evenodd" d="M15.5 30C23.5081 30 30 23.5081 30 15.5C30 7.49187 23.5081 1 15.5 1C7.49187 1 1 7.49187 1 15.5C1 23.5081 7.49187 30 15.5 30ZM15.5 31C24.0604 31 31 24.0604 31 15.5C31 6.93959 24.0604 0 15.5 0C6.93959 0 0 6.93959 0 15.5C0 24.0604 6.93959 31 15.5 31Z" fill="#383838"/>
  <path d="M21 11.8537C21 12.009 20.9432 12.1589 20.8404 12.275C20.7376 12.391 20.5959 12.4652 20.4423 12.4834L20.3684 12.4878H19.8347L19.0573 20.4273C19.0149 20.8581 18.8145 21.2577 18.495 21.5484C18.1755 21.8391 17.7598 22 17.3286 22H12.6714C12.2402 22 11.8245 21.8391 11.505 21.5484C11.1855 21.2577 10.9851 20.8581 10.9427 20.4273L10.1653 12.4878H9.63158C9.46407 12.4878 9.30343 12.421 9.18499 12.3021C9.06654 12.1831 9 12.0218 9 11.8537C9 11.6855 9.06654 11.5242 9.18499 11.4052C9.30343 11.2863 9.46407 11.2195 9.63158 11.2195H12.7895C12.7895 10.928 12.8467 10.6394 12.9577 10.3701C13.0688 10.1009 13.2317 9.85618 13.4369 9.65008C13.6422 9.44398 13.8859 9.28049 14.1541 9.16895C14.4223 9.05741 14.7097 9 15 9C15.2903 9 15.5777 9.05741 15.8459 9.16895C16.1141 9.28049 16.3578 9.44398 16.5631 9.65008C16.7683 9.85618 16.9312 10.1009 17.0423 10.3701C17.1533 10.6394 17.2105 10.928 17.2105 11.2195H20.3684C20.5359 11.2195 20.6966 11.2863 20.815 11.4052C20.9335 11.5242 21 11.6855 21 11.8537ZM16.4211 13.9146C16.3066 13.9146 16.196 13.9563 16.1097 14.0318C16.0235 14.1073 15.9674 14.2117 15.9518 14.3256L15.9474 14.3902V18.8293L15.9518 18.894C15.9674 19.0078 16.0235 19.1121 16.1098 19.1876C16.196 19.2631 16.3066 19.3047 16.4211 19.3047C16.5355 19.3047 16.6461 19.2631 16.7323 19.1876C16.8186 19.1121 16.8747 19.0078 16.8903 18.894L16.8947 18.8293V14.3902L16.8903 14.3256C16.8747 14.2117 16.8186 14.1073 16.7324 14.0318C16.6461 13.9563 16.5355 13.9146 16.4211 13.9146ZM13.5789 13.9146C13.4645 13.9146 13.3539 13.9563 13.2676 14.0318C13.1814 14.1073 13.1253 14.2117 13.1097 14.3256L13.1053 14.3902V18.8293L13.1097 18.894C13.1253 19.0078 13.1814 19.1121 13.2677 19.1876C13.3539 19.2631 13.4645 19.3047 13.5789 19.3047C13.6934 19.3047 13.804 19.2631 13.8902 19.1876C13.9765 19.1121 14.0326 19.0078 14.0482 18.894L14.0526 18.8293V14.3902L14.0482 14.3256C14.0326 14.2117 13.9765 14.1073 13.8903 14.0318C13.804 13.9563 13.6934 13.9146 13.5789 13.9146ZM15 10.2683C14.7487 10.2683 14.5078 10.3685 14.3301 10.5469C14.1524 10.7253 14.0526 10.9672 14.0526 11.2195H15.9474C15.9474 10.9672 15.8476 10.7253 15.6699 10.5469C15.4922 10.3685 15.2513 10.2683 15 10.2683Z" fill="#383838"/>
</svg>
