<svg width="24" height="24" viewBox="0 0 24 24" fill="none" xmlns="http://www.w3.org/2000/svg">
<circle cx="12" cy="12" r="12" fill="#FE3E3E"/>
<path d="M17.9421 15.3878L12.371 6.20408C12.2879 6.0676 12.1446 6 12 6C11.8554 6 11.7107 6.0676 11.629 6.20408L6.05793 15.3878C5.8932 15.6607 6.09944 16 6.42889 16H17.5711C17.9006 16 18.1068 15.6607 17.9421 15.3878ZM11.5715 9.77551C11.5715 9.71939 11.6197 9.67347 11.6786 9.67347H12.3214C12.3803 9.67347 12.4285 9.71939 12.4285 9.77551V12.1224C12.4285 12.1786 12.3803 12.2245 12.3214 12.2245H11.6786C11.6197 12.2245 11.5715 12.1786 11.5715 12.1224V9.77551ZM12 14.2653C11.8318 14.262 11.6716 14.1961 11.5539 14.0816C11.4361 13.9672 11.3702 13.8133 11.3702 13.6531C11.3702 13.4928 11.4361 13.339 11.5539 13.2245C11.6716 13.11 11.8318 13.0441 12 13.0408C12.1682 13.0441 12.3284 13.11 12.4461 13.2245C12.5639 13.339 12.6298 13.4928 12.6298 13.6531C12.6298 13.8133 12.5639 13.9672 12.4461 14.0816C12.3284 14.1961 12.1682 14.262 12 14.2653Z" fill="white"/>
</svg>
